<svg width="40" height="40" viewBox="0 0 40 40" fill="none" xmlns="http://www.w3.org/2000/svg">
<g clip-path="url(#clip0_7477_659)">
<path d="M40 1.62029C40 1.21682 39.6379 0.913239 39.2344 0.913239H0.765554C0.362086 0.913239 0 1.21682 0 1.62029V32.3177C0.0156963 32.7297 0.352811 33.0569 0.765554 33.0594H13.9369L12.647 37.6256H10.351C9.9472 37.6256 9.62043 37.9527 9.62043 38.3562C9.62043 38.7596 9.9472 39.0868 10.351 39.0868H29.649C30.0528 39.0868 30.3796 38.7596 30.3796 38.3562C30.3796 37.9527 30.0528 37.6256 29.649 37.6256H27.353L26.0631 33.0594H39.2344C39.6472 33.0569 39.9843 32.7297 40 32.3177V1.62029ZM1.46119 2.37443H38.5388V25.2055H1.46119V2.37443ZM25.8355 37.6256H14.1645L15.4545 33.0594H24.5452L25.8355 37.6256ZM38.5388 31.5982H1.46119V26.6667H38.5388V31.5982Z" fill="black"/>
<path d="M32.4925 4.84018H23.7913C23.4528 4.84482 23.1171 4.90867 22.8003 5.02889L20.4915 5.87542C20.1744 5.99208 19.8262 5.99315 19.5084 5.87899L17.1996 5.02711C16.8824 4.9076 16.5471 4.8441 16.2086 4.84018H7.50744C7.09505 4.85195 6.76471 5.18621 6.75793 5.59896V21.6203C6.76471 22.032 7.09576 22.3652 7.50744 22.3744H16.2086C16.3755 22.3701 16.5418 22.3958 16.7001 22.4493L19.0089 23.283C19.6496 23.5128 20.351 23.5113 20.9906 23.2784L23.2994 22.4501C23.4578 22.3962 23.624 22.3705 23.791 22.3744H32.4921C32.9041 22.3652 33.2352 22.0323 33.242 21.6203V5.59896C33.2352 5.18621 32.9048 4.85195 32.4925 4.84018ZM17.1996 21.0759C16.8814 20.9643 16.5457 20.909 16.2086 20.9132H8.21912V6.30137H16.2086C16.3769 6.306 16.5432 6.33989 16.7001 6.40197L19.0089 7.2485C19.0946 7.27953 19.1816 7.31342 19.2694 7.33626V21.8172L17.1996 21.0759ZM31.7808 20.9132H23.7913C23.4542 20.909 23.1185 20.9643 22.8003 21.0759L20.7305 21.8172V7.33661C20.8183 7.31378 20.9053 7.28703 20.991 7.25563L23.2997 6.40197C23.4567 6.34025 23.6229 6.30636 23.7913 6.30172H31.7808V20.9132Z" fill="black"/>
<path d="M22.6477 9.31507C22.6477 9.71853 22.9748 10.0457 23.3783 10.0457H26.1526C26.5565 10.0457 26.8832 9.71853 26.8832 9.31507C26.8832 8.9116 26.5565 8.58447 26.1526 8.58447H23.3783C22.9748 8.58447 22.6477 8.9116 22.6477 9.31507Z" fill="black"/>
<path d="M22.6477 12.1461C22.6477 12.5496 22.9748 12.8767 23.3783 12.8767H29.4239C29.8274 12.8767 30.1545 12.5496 30.1545 12.1461C30.1545 11.7427 29.8274 11.4155 29.4239 11.4155H23.3783C22.9748 11.4155 22.6477 11.7427 22.6477 12.1461Z" fill="black"/>
<path d="M29.4239 14.3379H23.3783C22.9748 14.3379 22.6477 14.665 22.6477 15.0685C22.6477 15.472 22.9748 15.7991 23.3783 15.7991H29.4239C29.8274 15.7991 30.1545 15.472 30.1545 15.0685C30.1545 14.665 29.8274 14.3379 29.4239 14.3379Z" fill="black"/>
<path d="M29.4239 17.169H23.3783C22.9748 17.169 22.6477 17.4961 22.6477 17.8995C22.6477 18.303 22.9748 18.6301 23.3783 18.6301H29.4239C29.8274 18.6301 30.1545 18.303 30.1545 17.8995C30.1545 17.4961 29.8274 17.169 29.4239 17.169Z" fill="black"/>
</g>
<defs>
<clipPath id="clip0_7477_659">
<rect width="40" height="40" fill="white"/>
</clipPath>
</defs>
</svg>
