<svg width="40" height="40" viewBox="0 0 40 40" fill="none" xmlns="http://www.w3.org/2000/svg">
<path d="M33.6769 25.353V11.0216C33.6769 10.5765 33.3128 10.269 32.8677 10.269H29.736C29.2909 10.269 28.9025 10.5765 28.9025 11.0216V23.953C28.3846 23.9692 27.8667 24.034 27.365 24.1553V15.2458C27.365 14.8007 26.9847 14.477 26.5396 14.477H23.4079C22.9628 14.477 22.5906 14.7926 22.5906 15.2458V27.3275C21.6276 28.6789 21.1097 30.3055 21.1178 31.9725C21.1178 36.407 24.7107 40 29.1372 40C33.5717 40 37.1647 36.407 37.1647 31.9806C37.1647 29.3263 35.8618 26.8501 33.6769 25.353ZM30.521 11.8875H32.0585V24.4952C31.5649 24.301 31.047 24.1553 30.521 24.0744V11.8875ZM24.209 16.0955H25.7465V24.7137C25.2044 24.9646 24.6865 25.2721 24.209 25.6362V16.0955ZM34.6561 35.2336C33.4989 37.1839 31.403 38.3734 29.1453 38.3734C25.609 38.3734 22.7443 35.5007 22.7443 31.9725C22.7443 29.3829 24.3061 27.0443 26.7014 26.057C26.7985 26.0408 26.8875 26.0004 26.9685 25.9518C27.6644 25.6929 28.4089 25.5634 29.1534 25.5634C29.3233 25.5634 29.4852 25.5715 29.6551 25.5877H29.6632C30.6343 25.6605 31.581 25.9599 32.4146 26.4616C35.4572 28.2662 36.4607 32.191 34.6561 35.2336Z" fill="black"/>
<path d="M29.1534 31.317C28.587 31.317 28.1338 30.8639 28.1338 30.2974C28.1338 29.7309 28.5789 29.2778 29.1453 29.2697C29.7118 29.2697 30.165 29.7309 30.165 30.2893C30.165 30.7344 30.5291 31.0985 30.9742 31.0985C31.4274 31.0985 31.7915 30.7425 31.7996 30.2893C31.7996 29.205 31.136 28.2258 30.1245 27.8293V27.1576C30.1245 26.7125 29.7604 26.3484 29.3153 26.3484C28.8702 26.3484 28.5061 26.7125 28.5061 27.1576V27.7403C27.098 28.1044 26.2483 29.5448 26.6125 30.9529C26.9038 32.1182 27.9477 32.9274 29.1453 32.9274C29.7037 32.9274 30.1569 33.3886 30.1569 33.947C30.1569 34.5054 29.6956 34.9585 29.1372 34.9585C28.5789 34.9585 28.1257 34.4973 28.1257 33.9389C28.1257 33.4938 27.7616 33.1297 27.3165 33.1297C26.8714 33.1297 26.5154 33.4858 26.5235 33.9308V33.9389C26.5315 35.1366 27.3408 36.1886 28.498 36.488V36.8521C28.498 37.2972 28.8621 37.6614 29.3072 37.6614C29.7523 37.6614 30.1164 37.2972 30.1164 36.8521V36.4071C31.4759 35.873 32.1395 34.3435 31.6135 32.9921C31.217 31.9806 30.2378 31.317 29.1534 31.317Z" fill="black"/>
<path d="M13.8509 20.9509H10.695C10.2499 20.9509 9.88574 21.315 9.88574 21.7601V34.4649C9.88574 34.91 10.2499 35.2742 10.695 35.2742H13.8509C14.296 35.2742 14.6602 34.91 14.6602 34.4649V21.7601C14.6602 21.315 14.296 20.9509 13.8509 20.9509ZM13.0417 33.7366H11.5042V22.5693H13.0417V33.7366Z" fill="black"/>
<path d="M20.2438 19.0896H17.0878C16.6427 19.0896 16.2786 19.4538 16.2786 19.8988V34.5458C16.2786 34.9909 16.6427 35.355 17.0878 35.355H20.2438C20.6888 35.355 21.053 34.9909 21.053 34.5458V19.8988C21.053 19.4538 20.6888 19.0896 20.2438 19.0896ZM19.4345 33.7366H17.897V20.7081H19.4345V33.7366Z" fill="black"/>
<path d="M7.458 27.9102H4.30202C3.85695 27.9102 3.4928 28.2743 3.4928 28.7194V34.4649C3.4928 34.91 3.85695 35.2741 4.30202 35.2741H7.458C7.90308 35.2741 8.26723 34.91 8.26723 34.4649V28.7194C8.26723 28.2743 7.90308 27.9102 7.458 27.9102ZM6.64878 33.7366H5.11125V29.5286H6.64878V33.7366Z" fill="black"/>
<path d="M33.5555 0L28.0204 0.00809225C27.5754 0 27.2112 0.364151 27.2031 0.809225C27.195 1.2543 27.5592 1.61845 28.0043 1.62654C28.0123 1.62654 28.0123 1.62654 28.0204 1.62654L31.6053 1.61845L22.8252 10.3662L19.7582 7.32349C19.6045 7.17783 19.3941 7.105 19.1837 7.11309C18.9733 7.105 18.7629 7.17783 18.6091 7.32349L3.07203 22.8606C2.75643 23.1762 2.75643 23.686 3.07203 23.9935C3.22578 24.1473 3.42808 24.2282 3.64658 24.2282C3.86507 24.2282 4.06737 24.1473 4.22113 23.9935L19.1918 9.02286L22.2588 12.1141C22.4044 12.2759 22.6148 12.365 22.8333 12.3731C23.0518 12.365 23.2541 12.2679 23.4079 12.1141L32.7463 2.76755L32.7382 6.3686C32.7382 6.82177 33.0943 7.18592 33.5474 7.2021C34.0006 7.19401 34.3567 6.82177 34.3567 6.3686L34.3648 0.817317C34.3648 0.372244 34.0006 0 33.5555 0Z" fill="black"/>
</svg>
