<svg width="40" height="40" viewBox="0 0 40 40" fill="none" xmlns="http://www.w3.org/2000/svg">
<g clip-path="url(#clip0_7477_634)">
<path d="M34.1082 18.2908V8.20249C34.1082 5.80482 32.1448 3.82445 29.747 3.82445H29.2038V3.14058C29.2038 1.42987 27.8169 0.0430216 26.1062 0.0430216C24.3955 0.0430216 23.0087 1.42987 23.0087 3.14058V3.82445H11.651V3.14058C11.651 1.40612 10.2448 0 8.51038 0C6.77593 0 5.36981 1.40612 5.36981 3.14058V3.82445H4.90044C2.50268 3.82445 0.551392 5.80482 0.551392 8.20249V31.3674C0.551392 33.7651 2.50268 35.7465 4.90044 35.7465H18.5464C20.7961 38.4375 24.1215 39.9948 27.6292 40C34.1426 40 39.4485 34.6931 39.4485 28.1795C39.4487 24.051 37.2918 20.4035 34.1082 18.2908ZM24.7295 3.14058C24.7163 2.39114 25.313 1.77283 26.0624 1.75958C26.0745 1.75941 26.0865 1.75932 26.0986 1.75941C26.855 1.75141 27.4749 2.35818 27.4829 3.11476C27.483 3.12337 27.483 3.13197 27.4829 3.14058V6.49178H24.7295V3.14058ZM7.09067 3.14058C7.09885 2.36954 7.73057 1.75115 8.50161 1.75932C8.50298 1.75932 8.50427 1.75932 8.50557 1.75941C9.27944 1.75941 9.9301 2.36679 9.9301 3.14058V6.49178H7.09067V3.14058ZM2.27225 8.20249C2.27225 6.75361 3.45156 5.54531 4.90044 5.54531H5.36981V7.38801C5.36981 7.86314 5.76664 8.21265 6.24186 8.21265H10.7694C11.2446 8.21265 11.651 7.86314 11.651 7.38801V5.54531H23.0087V7.38801C22.9959 7.8307 23.3445 8.19991 23.7872 8.21265C23.803 8.21308 23.8188 8.21308 23.8347 8.21265H28.3623C28.8118 8.22762 29.1884 7.87527 29.2034 7.4257C29.2038 7.41313 29.2039 7.40057 29.2038 7.38801V5.54531H29.747C31.2056 5.56002 32.3819 6.7438 32.3874 8.20249V10.966H2.27225V8.20249ZM4.90044 34.0256C3.45156 34.0256 2.27225 32.8163 2.27225 31.3674V12.6869H32.3874V17.3551C30.8896 16.6974 29.2715 16.3583 27.6357 16.3589C21.1222 16.3589 15.8197 21.6735 15.8197 28.1871C15.8164 30.2335 16.3453 32.2454 17.3546 34.0256H4.90044ZM27.6292 38.2638C22.0555 38.2638 17.5371 33.7454 17.5371 28.1717C17.5371 22.598 22.0555 18.0796 27.6292 18.0796C33.2029 18.0796 37.7213 22.598 37.7213 28.1717V28.1718C37.715 33.7429 33.2003 38.2575 27.6292 38.2638Z" fill="black"/>
<path d="M31.6827 28.1747H27.9131V22.9975C27.9131 22.5222 27.5279 22.137 27.0527 22.137C26.5775 22.137 26.1923 22.5222 26.1923 22.9975V29.0342C26.1998 29.5127 26.5903 29.8964 27.0689 29.8955H31.6827C32.1579 29.8955 32.5431 29.5103 32.5431 29.0351C32.5431 28.5599 32.1579 28.1747 31.6827 28.1747Z" fill="black"/>
</g>
<defs>
<clipPath id="clip0_7477_634">
<rect width="40" height="40" fill="white"/>
</clipPath>
</defs>
</svg>
