<svg width="40" height="40" viewBox="0 0 40 40" fill="none" xmlns="http://www.w3.org/2000/svg">
<path fill-rule="evenodd" clip-rule="evenodd" d="M19.9999 19.4445C23.0681 19.4445 25.5554 16.9571 25.5554 13.8889C25.5554 10.8206 23.0681 8.33331 19.9999 8.33331C16.9317 8.33331 14.4443 10.8206 14.4443 13.8889C14.4443 16.9571 16.9317 19.4445 19.9999 19.4445ZM19.9999 17.7778C22.1477 17.7778 23.8887 16.0366 23.8887 13.8889C23.8887 11.7411 22.1477 9.99998 19.9999 9.99998C17.8521 9.99998 16.111 11.7411 16.111 13.8889C16.111 16.0366 17.8521 17.7778 19.9999 17.7778Z" fill="black"/>
<path fill-rule="evenodd" clip-rule="evenodd" d="M12.5001 17.5C12.5001 19.8011 10.6346 21.6666 8.33342 21.6666C6.03223 21.6666 4.16675 19.8011 4.16675 17.5C4.16675 15.1988 6.03223 13.3333 8.33342 13.3333C10.6346 13.3333 12.5001 15.1988 12.5001 17.5ZM10.8334 17.5C10.8334 18.8806 9.71413 20 8.33342 20C6.9527 20 5.83341 18.8806 5.83341 17.5C5.83341 16.1193 6.9527 15 8.33342 15C9.71413 15 10.8334 16.1193 10.8334 17.5Z" fill="black"/>
<path fill-rule="evenodd" clip-rule="evenodd" d="M2.5 31.6666V28.3333C2.5 25.1116 5.11167 22.5 8.33333 22.5C10.3747 22.5 12.1712 23.5486 13.2135 25.1365C14.4136 22.5931 17.0013 20.8333 20 20.8333C22.9987 20.8333 25.5863 22.5931 26.7865 25.1365C27.8288 23.5486 29.6253 22.5 31.6667 22.5C34.8883 22.5 37.5 25.1116 37.5 28.3333V31.6666C37.5 32.1268 37.1268 32.5 36.6667 32.5H3.33333C2.8731 32.5 2.5 32.1268 2.5 31.6666ZM4.16667 28.3333C4.16667 26.0321 6.03215 24.1666 8.33333 24.1666C10.6345 24.1666 12.5 26.0321 12.5 28.3333V30.8333H4.16667V28.3333ZM35.8333 30.8333V28.3333C35.8333 26.0321 33.9678 24.1666 31.6667 24.1666C29.3655 24.1666 27.5 26.0321 27.5 28.3333V30.8333H35.8333ZM25.8333 30.8333V28.3333C25.8333 25.1116 23.2217 22.5 20 22.5C16.7783 22.5 14.1667 25.1116 14.1667 28.3333V30.8333H25.8333Z" fill="black"/>
<path fill-rule="evenodd" clip-rule="evenodd" d="M35.8333 17.5C35.8333 19.8011 33.9678 21.6666 31.6667 21.6666C29.3655 21.6666 27.5 19.8011 27.5 17.5C27.5 15.1988 29.3655 13.3333 31.6667 13.3333C33.9678 13.3333 35.8333 15.1988 35.8333 17.5ZM34.1667 17.5C34.1667 18.8806 33.0473 20 31.6667 20C30.286 20 29.1667 18.8806 29.1667 17.5C29.1667 16.1193 30.286 15 31.6667 15C33.0473 15 34.1667 16.1193 34.1667 17.5Z" fill="black"/>
</svg>
