<svg width="40" height="40" viewBox="0 0 40 40" fill="none" xmlns="http://www.w3.org/2000/svg">
<g clip-path="url(#clip0_7477_588)">
<path d="M39.3698 31.1475H38.2787V10.8444C38.2697 8.64885 36.4827 6.87663 34.2876 6.88528H30.9016V6.03295C30.9016 5.85172 30.8357 5.65577 30.7169 5.5738H30.7207L26.9774 1.82637L26.9781 1.82893C26.8555 1.70662 26.689 1.63842 26.5154 1.63938H16.4508C16.2801 1.63874 16.1168 1.70726 15.9977 1.82957C15.8786 1.95188 15.8146 2.1171 15.8197 2.28776V6.88528H14.7214L14.7221 6.21001C14.7224 6.08674 14.6888 5.96539 14.6248 5.86005L12.4609 2.33995C12.3422 2.14527 12.1308 2.02681 11.9029 2.02617C11.6752 2.02585 11.4636 2.14367 11.3438 2.3377L9.18034 5.85461C9.11663 5.96219 9.08301 6.08514 9.08301 6.21001L9.08397 6.88528H5.71275C3.51725 6.87663 1.7303 8.64885 1.72134 10.8444V31.1475H0.630153C0.268025 31.1475 3.10145e-05 31.4677 3.10145e-05 31.8298V34.3872C-0.00413137 35.4393 0.410827 36.4498 1.15301 37.1952C1.8952 37.9409 2.90378 38.3603 3.95558 38.3606H36.0444C37.0965 38.3603 38.1051 37.9409 38.8473 37.1952C39.5895 36.4495 40.0045 35.439 40 34.3868V31.8295C40 31.4677 39.732 31.1475 39.3698 31.1475ZM27.1311 3.87075L28.6776 5.40987H27.1311V3.87075ZM17.1312 2.95086H25.8197V6.03295C25.8357 6.40916 26.1392 6.7095 26.5154 6.72134H29.5901V19.6721H17.1312V2.95086ZM30.2609 20.9836C30.4335 20.982 30.5987 20.9116 30.7191 20.7873C30.8395 20.6634 30.9051 20.4966 30.9016 20.3237V11.7213H33.6885V28.1148H6.3115V11.7213H9.09005L9.09838 18.1926C9.09742 19.7416 10.3522 20.998 11.9013 20.9993C13.4503 21.0003 14.707 19.7455 14.708 18.1964L14.7154 11.7213H15.8197V20.3237C15.8139 20.4953 15.8776 20.6622 15.9964 20.7864C16.1152 20.9106 16.2791 20.9817 16.4508 20.9836H30.2609ZM13.3991 15.6558H10.4063L10.3958 6.88528H13.41L13.3991 15.6558ZM13.3978 16.9672L13.3962 18.1929C13.3815 19.0062 12.7184 19.6581 11.9048 19.659C11.0915 19.6603 10.4268 19.01 10.4099 18.1967L10.4082 16.9672H13.3978ZM15.8197 8.19675V10.4099H14.717L14.7198 8.19675H15.8197ZM11.9029 3.96392L12.8935 5.5738H10.9125L11.9029 3.96392ZM3.03281 10.8444C3.04114 9.37311 4.24119 8.18715 5.71275 8.19675H9.08589L9.08845 10.4099H5.66889C5.30676 10.4099 5.00002 10.6737 5.00002 11.0358V28.7676C5.00611 29.1329 5.30356 29.4259 5.66889 29.4262H34.3311C34.6964 29.4259 34.9942 29.1329 35 28.7676V11.0358C35 10.6737 34.6936 10.4099 34.3311 10.4099H30.9016V8.19675H34.2876C35.7588 8.18715 36.9589 9.37311 36.9672 10.8444V31.1475H24.8786C24.6936 31.1527 24.5191 31.234 24.3964 31.3723L23.7215 32.0975C23.2146 32.6431 22.5032 32.9527 21.7584 32.9508H18.2419C17.4981 32.9553 16.7863 32.6482 16.2788 32.1042L15.6039 31.3653C15.4803 31.2289 15.3055 31.1501 15.1214 31.1475H3.03281V10.8444ZM38.6885 34.3868C38.6933 35.0912 38.4167 35.7684 37.9204 36.2682C37.4241 36.768 36.7488 37.0492 36.0444 37.0492H3.95558C3.25118 37.0492 2.57623 36.768 2.07963 36.2682C1.58334 35.7684 1.30702 35.0912 1.3115 34.3868V32.459H14.8342L15.3144 32.9796C16.0688 33.7964 17.1299 34.261 18.2416 34.2623H21.7581C22.8698 34.261 23.9309 33.7964 24.6856 32.9796L25.1658 32.459H38.6885V34.3868Z" fill="black"/>
<path d="M19.7934 10.4918H23.3824C23.7445 10.4918 24.0381 10.1982 24.0381 9.8361C24.0381 9.47397 23.7445 9.18036 23.3824 9.18036H19.7934C19.4313 9.18036 19.1377 9.47397 19.1377 9.8361C19.1377 10.1982 19.4313 10.4918 19.7934 10.4918Z" fill="black"/>
<path d="M26.9178 11.3115H19.7934C19.4313 11.3115 19.1377 11.6051 19.1377 11.9672C19.1377 12.3294 19.4313 12.623 19.7934 12.623H26.9178C27.2803 12.623 27.5736 12.3294 27.5736 11.9672C27.5736 11.6051 27.2803 11.3115 26.9178 11.3115Z" fill="black"/>
<path d="M26.9178 13.4426H19.7934C19.4313 13.4426 19.1377 13.7362 19.1377 14.0984C19.1377 14.4605 19.4313 14.7541 19.7934 14.7541H26.9178C27.2803 14.7541 27.5736 14.4605 27.5736 14.0984C27.5736 13.7362 27.2803 13.4426 26.9178 13.4426Z" fill="black"/>
<path d="M26.9178 15.5738H19.7934C19.4313 15.5738 19.1377 15.8674 19.1377 16.2295C19.1377 16.5917 19.4313 16.8853 19.7934 16.8853H26.9178C27.2803 16.8853 27.5736 16.5917 27.5736 16.2295C27.5736 15.8674 27.2803 15.5738 26.9178 15.5738Z" fill="black"/>
</g>
<defs>
<clipPath id="clip0_7477_588">
<rect width="40" height="40" fill="white"/>
</clipPath>
</defs>
</svg>
