<svg width="40" height="40" viewBox="0 0 40 40" fill="none" xmlns="http://www.w3.org/2000/svg">
<path d="M30.6641 16.0781C28.4344 16.0661 26.2853 16.9107 24.6604 18.4375H20.625V10.8311C20.6248 10.6332 20.7026 10.4432 20.8415 10.3022C20.9804 10.1613 21.1693 10.0808 21.3672 10.0781H21.5234C21.7213 10.0808 21.9102 10.1613 22.0491 10.3022C22.188 10.4432 22.2658 10.6332 22.2656 10.8311V13.6436C22.2656 14.172 22.4755 14.6787 22.8491 15.0523C23.2227 15.4259 23.7295 15.6358 24.2578 15.6358C24.7862 15.6358 25.2929 15.4259 25.6665 15.0523C26.0401 14.6787 26.25 14.172 26.25 13.6436V6.80766C26.25 6.6419 26.1842 6.48293 26.0669 6.36572C25.9497 6.24851 25.7908 6.18266 25.625 6.18266C25.4592 6.18266 25.3003 6.24851 25.1831 6.36572C25.0658 6.48293 25 6.6419 25 6.80766V13.6436C25 13.8404 24.9218 14.0292 24.7826 14.1684C24.6434 14.3076 24.4547 14.3858 24.2578 14.3858C24.061 14.3858 23.8722 14.3076 23.733 14.1684C23.5938 14.0292 23.5156 13.8404 23.5156 13.6436V10.8311C23.5154 10.3018 23.3058 9.79407 22.9326 9.41879C22.5593 9.04351 22.0527 8.83117 21.5234 8.82813H21.3672C20.8379 8.83117 20.3313 9.04351 19.958 9.41879C19.5848 9.79407 19.3752 10.3018 19.375 10.8311V18.4375H15.3396C13.7147 16.9107 11.5656 16.0661 9.33594 16.0781C4.44656 16.0781 0.46875 20.0521 0.46875 24.9375C0.46875 29.8334 4.44656 33.8166 9.33594 33.8166C11.5337 33.8166 13.6527 32.9905 15.3305 31.4848H24.6696C25.7327 32.4592 27.0173 33.1597 28.4123 33.5256C29.8072 33.8915 31.2703 33.9117 32.6748 33.5844C34.0793 33.2572 35.3828 32.5924 36.4724 31.6477C37.5619 30.703 38.4047 29.5068 38.9276 28.1628C39.4505 26.8189 39.6378 25.3677 39.4733 23.935C39.3087 22.5023 38.7973 21.1313 37.9833 19.9409C37.1693 18.7505 36.0772 17.7765 34.8019 17.1034C33.5265 16.4303 32.1062 16.0784 30.6641 16.0781ZM30.6641 32.5625C28.7027 32.5625 26.813 31.7965 25.3431 30.4056C25.227 30.2958 25.0733 30.2346 24.9134 30.2346H15.0865C14.9267 30.2346 14.7729 30.2958 14.6568 30.4056C13.1841 31.7991 11.2945 32.5665 9.33578 32.5665C5.13562 32.5665 1.71859 29.1441 1.71859 24.9374C1.72188 22.9189 2.52571 20.9841 3.95372 19.5576C5.38173 18.131 7.3173 17.3292 9.33578 17.328C10.3206 17.3221 11.2968 17.5115 12.2081 17.8851C13.1193 18.2587 13.9475 18.8092 14.6447 19.5048C14.7619 19.6218 14.9207 19.6876 15.0863 19.6876H24.9135C25.0791 19.6876 25.238 19.6218 25.3552 19.5048C26.0524 18.8092 26.8806 18.2588 27.7918 17.8852C28.703 17.5116 29.6792 17.3222 30.6641 17.3281C32.6843 17.3281 34.6217 18.1307 36.0502 19.5592C37.4787 20.9877 38.2812 22.9251 38.2812 24.9453C38.2812 26.9655 37.4787 28.903 36.0502 30.3315C34.6217 31.76 32.6843 32.5625 30.6641 32.5625Z" fill="black"/>
<path d="M10.7812 24.0625H9.29688V22.5C9.29688 22.3342 9.23103 22.1753 9.11382 22.0581C8.99661 21.9408 8.83764 21.875 8.67188 21.875C8.50611 21.875 8.34714 21.9408 8.22993 22.0581C8.11272 22.1753 8.04688 22.3342 8.04688 22.5V24.0625H6.48438C6.31861 24.0625 6.15964 24.1283 6.04243 24.2456C5.92522 24.3628 5.85938 24.5217 5.85938 24.6875C5.85938 24.8533 5.92522 25.0122 6.04243 25.1294C6.15964 25.2467 6.31861 25.3125 6.48438 25.3125H8.04688V26.7969C8.04688 26.9626 8.11272 27.1216 8.22993 27.2388C8.34714 27.356 8.50611 27.4219 8.67188 27.4219C8.83764 27.4219 8.99661 27.356 9.11382 27.2388C9.23103 27.1216 9.29688 26.9626 9.29688 26.7969V25.3125H10.7812C10.947 25.3125 11.106 25.2467 11.2232 25.1294C11.3404 25.0122 11.4062 24.8533 11.4062 24.6875C11.4062 24.5217 11.3404 24.3628 11.2232 24.2456C11.106 24.1283 10.947 24.0625 10.7812 24.0625Z" fill="black"/>
<path d="M31.0156 23.4159C31.3965 23.4159 31.7689 23.3029 32.0857 23.0913C32.4024 22.8796 32.6492 22.5788 32.795 22.2269C32.9408 21.875 32.9789 21.4877 32.9046 21.1141C32.8303 20.7405 32.6469 20.3973 32.3775 20.1279C32.1082 19.8586 31.765 19.6752 31.3914 19.6008C31.0178 19.5265 30.6305 19.5647 30.2786 19.7104C29.9266 19.8562 29.6258 20.1031 29.4142 20.4198C29.2026 20.7365 29.0896 21.1089 29.0896 21.4898C29.0902 22.0005 29.2933 22.49 29.6544 22.8511C30.0154 23.2122 30.505 23.4153 31.0156 23.4159ZM31.0156 20.8138C31.1493 20.8138 31.28 20.8535 31.3912 20.9278C31.5024 21.002 31.589 21.1076 31.6402 21.2311C31.6913 21.3547 31.7047 21.4906 31.6786 21.6217C31.6526 21.7529 31.5882 21.8733 31.4936 21.9679C31.3991 22.0624 31.2786 22.1268 31.1475 22.1529C31.0164 22.179 30.8804 22.1656 30.7569 22.1144C30.6334 22.0632 30.5278 21.9766 30.4535 21.8654C30.3792 21.7542 30.3396 21.6235 30.3396 21.4898C30.3398 21.3106 30.4111 21.1388 30.5378 21.0121C30.6646 20.8853 30.8364 20.814 31.0156 20.8138Z" fill="black"/>
<path d="M31.0155 26.5099C30.6346 26.5099 30.2622 26.6229 29.9454 26.8345C29.6287 27.0461 29.3818 27.3469 29.236 27.6989C29.0902 28.0508 29.052 28.4381 29.1264 28.8118C29.2007 29.1854 29.3841 29.5286 29.6535 29.798C29.9229 30.0673 30.2661 30.2508 30.6397 30.3251C31.0133 30.3994 31.4006 30.3613 31.7526 30.2155C32.1045 30.0697 32.4053 29.8228 32.617 29.506C32.8286 29.1893 32.9416 28.8169 32.9415 28.4359C32.941 27.9253 32.7379 27.4357 32.3768 27.0747C32.0157 26.7136 31.5262 26.5105 31.0155 26.5099ZM31.0155 29.112C30.8818 29.112 30.7511 29.0724 30.6399 28.9981C30.5287 28.9238 30.442 28.8183 30.3908 28.6947C30.3397 28.5712 30.3263 28.4352 30.3523 28.3041C30.3784 28.1729 30.4428 28.0525 30.5374 27.9579C30.6319 27.8633 30.7524 27.7989 30.8835 27.7728C31.0147 27.7467 31.1506 27.7601 31.2742 27.8113C31.3977 27.8625 31.5033 27.9491 31.5776 28.0603C31.6519 28.1715 31.6915 28.3022 31.6915 28.4359C31.6914 28.6152 31.6201 28.787 31.4933 28.9138C31.3666 29.0405 31.1948 29.1118 31.0155 29.112Z" fill="black"/>
<path d="M34.4887 23.0369C34.1077 23.0369 33.7353 23.1498 33.4186 23.3615C33.1018 23.5731 32.8549 23.8739 32.7091 24.2259C32.5633 24.5778 32.5252 24.9651 32.5995 25.3387C32.6738 25.7123 32.8573 26.0556 33.1266 26.3249C33.396 26.5943 33.7392 26.7777 34.1129 26.8521C34.4865 26.9264 34.8738 26.8882 35.2257 26.7424C35.5777 26.5966 35.8785 26.3498 36.0901 26.033C36.3018 25.7162 36.4147 25.3438 36.4147 24.9629C36.4141 24.4523 36.211 23.9627 35.8499 23.6016C35.4889 23.2406 34.9993 23.0375 34.4887 23.0369ZM34.4887 25.639C34.355 25.639 34.2242 25.5994 34.113 25.5251C34.0018 25.4508 33.9152 25.3452 33.864 25.2217C33.8128 25.0981 33.7994 24.9622 33.8255 24.831C33.8516 24.6999 33.9159 24.5794 34.0105 24.4849C34.105 24.3903 34.2255 24.3259 34.3567 24.2998C34.4878 24.2737 34.6238 24.2871 34.7473 24.3383C34.8709 24.3894 34.9764 24.4761 35.0507 24.5873C35.125 24.6985 35.1647 24.8292 35.1647 24.9629C35.1645 25.1421 35.0932 25.314 34.9665 25.4407C34.8397 25.5675 34.6679 25.6388 34.4887 25.639Z" fill="black"/>
<path d="M27.5424 23.0369C27.1615 23.0369 26.7891 23.1499 26.4723 23.3616C26.1556 23.5732 25.9088 23.8741 25.763 24.226C25.6173 24.578 25.5791 24.9652 25.6535 25.3389C25.7278 25.7125 25.9113 26.0557 26.1807 26.325C26.4501 26.5944 26.7933 26.7778 27.1669 26.8521C27.5405 26.9264 27.9278 26.8882 28.2797 26.7424C28.6317 26.5966 28.9325 26.3497 29.1441 26.033C29.3557 25.7162 29.4687 25.3438 29.4686 24.9629C29.4681 24.4522 29.2649 23.9626 28.9038 23.6016C28.5427 23.2405 28.0531 23.0374 27.5424 23.0369ZM27.5424 25.639C27.4087 25.639 27.278 25.5993 27.1668 25.525C27.0556 25.4508 26.9689 25.3452 26.9178 25.2216C26.8666 25.0981 26.8532 24.9621 26.8793 24.831C26.9054 24.6998 26.9698 24.5794 27.0643 24.4848C27.1589 24.3903 27.2793 24.3259 27.4105 24.2998C27.5416 24.2737 27.6776 24.2871 27.8011 24.3383C27.9247 24.3894 28.0303 24.4761 28.1045 24.5873C28.1788 24.6985 28.2185 24.8292 28.2185 24.9629C28.2183 25.1421 28.147 25.314 28.0203 25.4408C27.8935 25.5675 27.7216 25.6388 27.5424 25.639Z" fill="black"/>
<path d="M25 26.0938C25 25.928 24.9342 25.769 24.8169 25.6518C24.6997 25.5346 24.5408 25.4688 24.375 25.4688H15.7031C15.5374 25.4688 15.3784 25.5346 15.2612 25.6518C15.144 25.769 15.0781 25.928 15.0781 26.0938V28.2812C15.0781 28.447 15.144 28.606 15.2612 28.7232C15.3784 28.8404 15.5374 28.9062 15.7031 28.9062H24.375C24.5408 28.9062 24.6997 28.8404 24.8169 28.7232C24.9342 28.606 25 28.447 25 28.2812V26.0938ZM16.3281 26.7188H19.375V27.6562H16.3281V26.7188ZM23.6719 27.6562H20.625V26.7188H23.6719V27.6562Z" fill="black"/>
</svg>
