<svg width="40" height="40" viewBox="0 0 40 40" fill="none" xmlns="http://www.w3.org/2000/svg">
<g clip-path="url(#clip0_7477_560)">
<path d="M20.0831 6.99243C12.911 6.99243 7.07568 12.8274 7.07568 19.9999C7.07568 27.1721 12.911 33.0074 20.0831 33.0074C27.2557 33.0074 33.0906 27.1721 33.0906 19.9999C33.0906 12.8274 27.2557 6.99243 20.0831 6.99243ZM13.5364 29.5184V24.9589C13.54 23.556 14.5874 22.3746 15.9797 22.2031C17.8199 24.3477 21.0016 24.7124 23.2791 23.0399C23.6122 22.7962 23.9163 22.5156 24.1855 22.2031C25.5785 22.3746 26.6259 23.5556 26.6299 24.9589V29.5184C24.7204 30.8006 22.5087 31.5525 20.0831 31.5525C17.6576 31.5525 15.4459 30.8006 13.5364 29.5184ZM28.0847 28.3325V24.9589C28.0786 22.6222 26.1845 20.7301 23.8474 20.7273C23.6161 20.7273 23.3984 20.8378 23.2613 21.0242C22.5183 22.0358 21.3384 22.6336 20.0831 22.6336C18.8279 22.6336 17.6477 22.0358 16.9046 21.0242C16.7679 20.8378 16.5502 20.7273 16.3189 20.7273C13.9822 20.7301 12.0877 22.6222 12.0816 24.9589V28.3325C9.812 26.1545 8.52802 23.1454 8.52625 19.9999C8.52625 13.6297 13.7108 8.44726 20.081 8.44726C26.4512 8.44726 31.6386 13.6301 31.6386 19.9999C31.6376 23.1454 30.3539 26.1545 28.0847 28.3325Z" fill="black"/>
<path d="M37.7385 22.0404C37.9143 20.4187 37.8717 18.7806 37.6124 17.1698L39.6256 15.2391C39.8458 15.0281 39.9108 14.702 39.7886 14.4225L37.4966 9.18322C37.373 8.9005 37.0846 8.72646 36.7766 8.74955L33.9899 8.95449C32.9869 7.66376 31.7966 6.53002 30.4587 5.59092L30.5404 2.80701C30.5496 2.49871 30.3631 2.21811 30.0754 2.10694L24.7427 0.048666C24.4561 -0.0617955 24.1308 0.0195412 23.9301 0.252185L22.1243 2.34491C20.5022 2.16946 18.8638 2.21172 17.253 2.471L15.3223 0.457835C15.1113 0.237623 14.7852 0.172624 14.5057 0.294807L9.26677 2.5875C8.98405 2.71111 8.81001 2.99951 8.83274 3.3071L9.03768 6.09421C7.74695 7.09724 6.61321 8.28746 5.67411 9.62507L2.8902 9.54338C2.58154 9.53308 2.30059 9.7199 2.19013 10.0087L0.132211 15.341C0.0213944 15.6276 0.102731 15.9526 0.335375 16.1537L2.42846 17.9594C2.25265 19.5812 2.29491 21.2193 2.55455 22.83L0.541025 24.7608C0.320812 24.9718 0.255814 25.2978 0.378352 25.5773L2.67069 30.8163C2.7943 31.099 3.0827 31.273 3.39065 31.2503L6.1774 31.0454C7.18043 32.3361 8.37065 33.4698 9.70826 34.4089L9.62657 37.1928C9.61733 37.5011 9.80381 37.7817 10.0919 37.8929L15.4246 39.9512C15.7112 40.062 16.0365 39.9807 16.2372 39.7477L18.0426 37.6546C19.6644 37.8304 21.3025 37.7881 22.9132 37.5288L24.844 39.542C25.0553 39.7622 25.381 39.8272 25.6605 39.705L30.8998 37.4127C31.1822 37.2891 31.3562 37.0007 31.3335 36.6931L31.1286 33.9063C32.4193 32.903 33.553 31.7127 34.4921 30.3748L37.276 30.4565C37.5843 30.4653 37.8649 30.2789 37.9761 29.9912L40.0344 24.6585C40.1448 24.3719 40.0635 24.0469 39.8309 23.8458L37.7385 22.0404ZM36.804 28.9871L34.138 28.9086C33.8869 28.9008 33.65 29.0233 33.5111 29.2325C32.5479 30.6792 31.3399 31.9475 29.9419 32.9804C29.7412 33.1289 29.6304 33.3697 29.6489 33.6186L29.8449 36.2861L25.5426 38.1682L23.6957 36.2424C23.5266 36.0662 23.2805 35.9866 23.04 36.0307C21.3234 36.3447 19.5688 36.3901 17.8384 36.1649C17.5958 36.1333 17.3535 36.2257 17.1937 36.4111L15.4704 38.409L11.096 36.7212L11.1741 34.0548C11.1816 33.8044 11.0594 33.5675 10.8509 33.4283C9.40387 32.4647 8.13552 31.257 7.10265 29.8591C6.95418 29.6584 6.71337 29.5479 6.46439 29.566L3.79697 29.7621L1.91487 25.4598L3.84031 23.6128C4.01683 23.4438 4.09639 23.1976 4.05235 22.9572C3.73801 21.2406 3.69291 19.486 3.91809 17.7555C3.9497 17.5129 3.857 17.2707 3.67195 17.1109L1.6737 15.3868L3.36188 11.0124L6.02822 11.0909C6.27863 11.098 6.51553 10.9758 6.65477 10.767C7.61837 9.32032 8.82599 8.05233 10.2243 7.0191C10.425 6.87099 10.5355 6.62983 10.517 6.3812L10.3209 3.71343L14.6233 1.83132L16.4702 3.75712C16.6393 3.93329 16.8858 4.01285 17.1259 3.96916C18.8428 3.65447 20.5981 3.60901 22.3289 3.83455C22.5715 3.86616 22.8138 3.77345 22.9736 3.58841L24.6973 1.59051L29.0713 3.27869L28.9928 5.94468C28.9854 6.19544 29.1076 6.43234 29.3164 6.57158C30.7631 7.53483 32.0314 8.7428 33.0643 10.1408C33.2128 10.3415 33.4536 10.4519 33.7026 10.4338L36.37 10.2378L38.2524 14.5401L36.3266 16.387C36.1505 16.5561 36.0705 16.8022 36.1146 17.0427C36.4289 18.7593 36.4744 20.5139 36.2492 22.2443C36.2176 22.4869 36.3099 22.7288 36.4953 22.8886L38.4925 24.6127L36.804 28.9871Z" fill="black"/>
<path d="M20.0831 11.3712C17.5315 11.3712 15.4629 13.4394 15.4629 15.991C15.4629 18.543 17.5315 20.6112 20.0831 20.6112C22.6347 20.6112 24.7033 18.5426 24.7033 15.991C24.7005 13.4408 22.6337 11.374 20.0831 11.3712ZM20.0831 19.1564C18.3349 19.1564 16.9177 17.7392 16.9177 15.991C16.9177 14.2428 18.3349 12.8256 20.0831 12.8256C21.8313 12.8256 23.2485 14.2428 23.2485 15.991C23.2463 17.7385 21.8306 19.1542 20.0831 19.1564Z" fill="black"/>
</g>
<defs>
<clipPath id="clip0_7477_560">
<rect width="40" height="40" fill="white"/>
</clipPath>
</defs>
</svg>
