<svg width="40" height="40" viewBox="0 0 40 40" fill="none" xmlns="http://www.w3.org/2000/svg">
<path d="M31.7236 23.2672L26.929 19.6791V11.7331C26.929 8.77951 25.58 3.00693 20.4507 0.107626C20.1999 -0.0357941 19.8916 -0.0357941 19.6409 0.107626C14.5116 3.00693 13.148 8.77951 13.148 11.7331C13.148 11.7517 13.1512 11.7702 13.1522 11.7887C13.1772 12.1673 13.1798 16.8566 13.1798 19.7003L8.30256 23.2604C8.08467 23.4155 7.95263 23.6643 7.94678 23.932V26.6576C7.96174 27.124 8.34452 27.4941 8.8112 27.4931H14.2117L14.6508 29.5768C14.8983 30.7316 15.9133 31.5606 17.0941 31.5726H23.0264C24.2073 31.5606 25.2223 30.7316 25.4697 29.5768L25.9088 27.4931H31.2261C31.6928 27.4941 32.0759 27.124 32.0908 26.6576V23.932C32.0768 23.666 31.9415 23.4207 31.7236 23.2672ZM25.2639 19.3341H14.8462C14.8462 18.5877 14.8462 17.8602 14.8456 17.1694H25.2639V19.3341ZM20.0409 1.80168C24.1663 4.39365 25.2639 9.22148 25.2639 11.7331V15.5043H14.844C14.8407 13.5069 14.8238 12.045 14.8082 11.7117C14.8147 9.19416 15.9269 4.38617 20.0409 1.80168ZM23.8407 29.2311C23.7594 29.6184 23.4222 29.8984 23.0264 29.9075H17.0941C16.6983 29.8984 16.3611 29.6184 16.2798 29.2311L15.9142 27.4931H24.2063L23.8407 29.2311ZM30.4257 25.828H9.61188V24.3541L14.2264 20.9992H25.9524L30.4257 24.347V25.828Z" fill="black"/>
<path d="M20.0188 32.5248C19.559 32.5248 19.1863 32.8975 19.1863 33.3574V39.1674C19.1863 39.6272 19.559 39.9999 20.0188 39.9999C20.4784 39.9999 20.8514 39.6272 20.8514 39.1674V33.3574C20.8514 32.8975 20.4784 32.5248 20.0188 32.5248Z" fill="black"/>
<path d="M25.93 32.5248C25.4701 32.5248 25.0974 32.8975 25.0974 33.3574V35.9312C25.0974 36.391 25.4701 36.7637 25.93 36.7637C26.3895 36.7637 26.7625 36.391 26.7625 35.9312V33.3574C26.7625 32.8975 26.3895 32.5248 25.93 32.5248Z" fill="black"/>
<path d="M14.191 32.5248C13.7311 32.5248 13.3584 32.8975 13.3584 33.3574V35.9312C13.3584 36.391 13.7311 36.7637 14.191 36.7637C14.6505 36.7637 15.0235 36.391 15.0235 35.9312V33.3574C15.0235 32.8975 14.6505 32.5248 14.191 32.5248Z" fill="black"/>
<path d="M17.8167 13.0005C19.0545 14.2302 21.0542 14.2256 22.2862 12.9898C23.5178 11.754 23.5161 9.75389 22.2826 8.52034C21.0487 7.28647 19.0486 7.28485 17.8131 8.51644C16.5773 9.74836 16.5724 11.7484 17.8021 12.9862C17.807 12.9908 17.8118 12.9956 17.8167 13.0005ZM18.994 9.69047C19.583 9.10183 20.5378 9.10183 21.1264 9.69047C21.7154 10.2794 21.7154 11.2343 21.1264 11.8232C20.5378 12.4119 19.583 12.4119 18.994 11.8232C18.405 11.2378 18.4021 10.2863 18.9872 9.6973L18.994 9.69047Z" fill="black"/>
</svg>
