<svg width="40" height="40" viewBox="0 0 40 40" fill="none" xmlns="http://www.w3.org/2000/svg">
<g clip-path="url(#clip0_7477_645)">
<path d="M7.33333 22.6667V31.3333C7.33244 31.8046 7.49835 32.2609 7.80167 32.6215C8.10499 32.9821 8.52614 33.2237 8.99055 33.3036C9.45495 33.3834 9.93263 33.2964 10.339 33.0578C10.7453 32.8192 11.0541 32.4445 11.2107 32H17.3333V34.904L12.7773 36.144C12.3625 36.2587 11.9966 36.5062 11.7358 36.8487C11.475 37.1911 11.3337 37.6096 11.3333 38.04C11.3342 38.5596 11.541 39.0576 11.9084 39.425C12.2758 39.7923 12.7738 39.9991 13.2933 40H26.7067C27.1816 39.999 27.6401 39.8258 27.9971 39.5126C28.3542 39.1995 28.5856 38.7675 28.6485 38.2967C28.7114 37.826 28.6015 37.3484 28.3392 36.9524C28.0769 36.5565 27.68 36.269 27.222 36.1433L22.6667 34.904V32H28.7893C28.9459 32.4445 29.2547 32.8192 29.661 33.0578C30.0674 33.2964 30.545 33.3834 31.0095 33.3036C31.4739 33.2237 31.895 32.9821 32.1983 32.6215C32.5017 32.2609 32.6676 31.8046 32.6667 31.3333V22.6667C33.0203 22.6667 33.3594 22.5262 33.6095 22.2761C33.8595 22.0261 34 21.687 34 21.3333V19.3333C34 18.9797 33.8595 18.6406 33.6095 18.3905C33.3594 18.1405 33.0203 18 32.6667 18H30V16.0113C30.0104 15.0134 30.2578 14.0322 30.722 13.1487C31.1196 12.3815 31.3291 11.5308 31.3333 10.6667C31.3333 8.98533 30.2587 8.036 29.1213 7.03C27.9067 5.95667 26.5333 4.74 26.1233 2.26667C26.0291 1.63987 25.7143 1.06726 25.2357 0.651769C24.757 0.23628 24.1458 0.00517391 23.512 0L16.488 0C15.8542 0.00517391 15.243 0.23628 14.7643 0.651769C14.2857 1.06726 13.9709 1.63987 13.8767 2.26667C13.47 4.74133 12.0933 5.958 10.8767 7.03133C9.74133 8.036 8.66667 8.98533 8.66667 10.6667C8.67088 11.5308 8.88041 12.3815 9.278 13.1487C9.74218 14.0322 9.98965 15.0134 10 16.0113V18H7.33333C6.97971 18 6.64057 18.1405 6.39052 18.3905C6.14048 18.6406 6 18.9797 6 19.3333V21.3333C6 21.687 6.14048 22.0261 6.39052 22.2761C6.64057 22.5262 6.97971 22.6667 7.33333 22.6667ZM10 31.3333C10 31.5101 9.92976 31.6797 9.80474 31.8047C9.67971 31.9298 9.51014 32 9.33333 32C9.15652 32 8.98695 31.9298 8.86193 31.8047C8.7369 31.6797 8.66667 31.5101 8.66667 31.3333V22.6667H10V31.3333ZM26.8707 37.43C27.0178 37.4699 27.1453 37.5619 27.2298 37.6888C27.3142 37.8157 27.3496 37.969 27.3296 38.1201C27.3096 38.2712 27.2354 38.4099 27.1208 38.5104C27.0062 38.6109 26.8591 38.6664 26.7067 38.6667H13.2933C13.1275 38.6656 12.9687 38.5993 12.8514 38.482C12.7341 38.3647 12.6677 38.2059 12.6667 38.04C12.6665 37.9018 12.7116 37.7674 12.795 37.6572C12.8784 37.5471 12.9956 37.4673 13.1287 37.43L18.1753 36.0567C18.3165 36.0182 18.441 35.9344 18.5298 35.8181C18.6186 35.7019 18.6667 35.5596 18.6667 35.4133V32H21.3333V35.4133C21.3333 35.5596 21.3814 35.7019 21.4702 35.8181C21.559 35.9344 21.6835 36.0182 21.8247 36.0567L26.8707 37.43ZM28.6667 30.6667H11.3333V26.6667H28.6667V30.6667ZM24.6667 22.6667C24.8435 22.6667 25.013 22.7369 25.1381 22.8619C25.2631 22.987 25.3333 23.1565 25.3333 23.3333V25.3333H14.6667V23.3333C14.6667 23.1565 14.7369 22.987 14.8619 22.8619C14.987 22.7369 15.1565 22.6667 15.3333 22.6667H24.6667ZM15.3333 21.3333V11C15.81 10.6913 17.1887 10 20 10C22.8113 10 24.19 10.69 24.6667 11V21.3333H15.3333ZM31.3333 31.3333C31.3333 31.5101 31.2631 31.6797 31.1381 31.8047C31.013 31.9298 30.8435 32 30.6667 32C30.4899 32 30.3203 31.9298 30.1953 31.8047C30.0702 31.6797 30 31.5101 30 31.3333V22.6667H31.3333V31.3333ZM32.6667 19.3333V21.3333H28.6667V19.3333H32.6667ZM28.5947 8.348C29.4953 9.16467 30 9.752 30 10.6667C29.9954 11.3208 29.8355 11.9645 29.5333 12.5447C28.9739 13.6153 28.6769 14.8034 28.6667 16.0113V18C28.313 18 27.9739 18.1405 27.7239 18.3905C27.4738 18.6406 27.3333 18.9797 27.3333 19.3333V21.3333C27.3333 21.687 27.4738 22.0261 27.7239 22.2761C27.9739 22.5262 28.313 22.6667 28.6667 22.6667V25.3333H26.6667V23.3333C26.6658 23.0536 26.606 22.7773 26.4911 22.5223C26.3762 22.2673 26.2089 22.0393 26 21.8533V10.9427L28.5947 8.348ZM15.1947 2.48133C15.2387 2.1675 15.393 1.87959 15.63 1.66922C15.867 1.45885 16.1712 1.33977 16.488 1.33333H23.512C23.8294 1.33935 24.1342 1.45841 24.3717 1.66909C24.6091 1.87977 24.7636 2.16826 24.8073 2.48267C25.1165 4.42026 26.1081 6.18348 27.6033 7.454L25.2627 9.79467C24.508 9.33733 22.9073 8.66667 20 8.66667C17.0927 8.66667 15.492 9.33733 14.7373 9.79467L12.4 7.454C13.8941 6.18278 14.8846 4.41936 15.1927 2.482L15.1947 2.48133ZM11.4073 8.348L14 10.9427V21.8533C13.7911 22.0393 13.6238 22.2673 13.5089 22.5223C13.394 22.7773 13.3342 23.0536 13.3333 23.3333V25.3333H11.3333V22.6667C11.687 22.6667 12.0261 22.5262 12.2761 22.2761C12.5262 22.0261 12.6667 21.687 12.6667 21.3333V19.3333C12.6667 18.9797 12.5262 18.6406 12.2761 18.3905C12.0261 18.1405 11.687 18 11.3333 18V16.0113C11.3231 14.8034 11.0261 13.6153 10.4667 12.5447C10.1645 11.9645 10.0046 11.3208 10 10.6667C10 9.752 10.5047 9.16467 11.4053 8.348H11.4073ZM7.33333 19.3333H11.3333V21.3333H7.33333V19.3333Z" fill="black"/>
</g>
<defs>
<clipPath id="clip0_7477_645">
<rect width="40" height="40" fill="white"/>
</clipPath>
</defs>
</svg>
