<svg width="40" height="40" viewBox="0 0 40 40" fill="none" xmlns="http://www.w3.org/2000/svg">
<path d="M10.4702 24.179C12.3482 25.9653 13.2511 28.6053 12.8836 31.2224L12.772 32.0927H10.6259C10.262 32.0927 9.967 32.3877 9.967 32.7516C9.967 33.1155 10.262 33.4106 10.6259 33.4106H29.3149C29.6788 33.4106 29.9739 33.1155 29.9739 32.7516C29.9739 32.3877 29.6788 32.0927 29.3149 32.0927H27.2931L27.2091 30.4807C27.0698 28.065 27.9472 25.7662 29.6154 24.1883C32.4208 21.5394 34.0115 17.8518 34.0128 13.9934C34.0292 10.1421 32.4423 6.4578 29.6322 3.8243C26.7998 1.14962 23.083 -0.200435 19.1629 0.0241447C15.7124 0.257733 12.4702 1.75836 10.059 4.23742C7.61567 6.73482 6.20127 9.99702 6.07579 13.422C5.91363 17.4747 7.51689 21.3988 10.4702 24.179ZM20.8591 9.14954C20.4061 9.60191 19.6725 9.60191 19.2198 9.14921C18.7674 8.69652 18.7674 7.96261 19.2198 7.50991C19.6725 7.05721 20.4061 7.05721 20.8591 7.50959C21.3112 7.96293 21.3112 8.69619 20.8591 9.14954ZM7.39302 13.4719C7.51689 10.3477 8.80388 7.38282 11.0011 5.15858C13.1835 2.91247 16.1191 1.55212 19.2439 1.33816C22.7931 1.13482 26.1615 2.35713 28.7274 4.78021C31.2728 7.16532 32.7103 10.5025 32.6949 13.9905C32.6936 17.485 31.2525 20.8241 28.711 23.2224C26.759 25.0693 25.7316 27.752 25.8935 30.5531L25.9736 32.0927H24.2397V22.7852H26.285C26.6586 22.7691 26.954 22.4634 26.9578 22.0896V15.8486C27.3693 15.7357 27.7442 15.5163 28.0437 15.2119C28.8387 14.4194 29.0028 13.192 28.4436 12.2184C27.8848 11.2451 26.7416 10.7682 25.6564 11.0556C24.5714 11.3429 23.8143 12.3232 23.8105 13.4458C23.8066 14.5684 24.5566 15.5539 25.6399 15.8486V21.4673H23.5972C23.2333 21.4673 22.9218 21.7257 22.9218 22.0896V32.0927H20.6979V10.7168C21.1114 10.6038 21.4881 10.3847 21.7909 10.0816C22.5853 9.2895 22.7494 8.063 22.1911 7.09003C21.6329 6.11707 20.4913 5.6396 19.4067 5.92531C18.3221 6.21102 17.5641 7.18913 17.5577 8.31074C17.5515 9.43235 18.2986 10.4188 19.38 10.7168V32.0927H17.1561V22.0896C17.1561 21.7257 16.8447 21.4673 16.4808 21.4673H14.438V15.8486C15.5178 15.5552 16.2662 14.5735 16.2633 13.4545C16.26 12.3352 15.5059 11.3577 14.4245 11.0704C13.3428 10.783 12.2031 11.2576 11.6449 12.2274C11.0867 13.1974 11.2492 14.4214 12.041 15.2119H12.0339C12.3338 15.5159 12.7083 15.7357 13.1201 15.8486V22.0896C13.1237 22.4634 13.4193 22.7691 13.7929 22.7852H15.8382V32.0927H14.1011L14.1896 31.399C14.615 28.3681 13.5641 25.3102 11.3762 23.2289C8.69835 20.7067 7.24566 17.1475 7.39302 13.4719ZM26.285 14.6199C25.7316 14.6199 25.2555 14.229 25.1477 13.6862C25.0396 13.1437 25.3301 12.6006 25.8414 12.3889C26.3523 12.1772 26.9417 12.3557 27.2493 12.8158C27.5566 13.2759 27.4961 13.8889 27.1052 14.2801C26.888 14.4983 26.5926 14.6205 26.285 14.6199ZM13.7929 14.6199C13.4853 14.6205 13.1899 14.4983 12.9728 14.2801C12.5815 13.8889 12.5213 13.2756 12.8286 12.8158C13.1359 12.3557 13.7256 12.1769 14.2366 12.3886C14.7478 12.6003 15.0384 13.1437 14.9303 13.6862C14.8225 14.229 14.3463 14.6199 13.7929 14.6199Z" fill="black"/>
<path d="M28.3262 36.0463C28.3262 35.6824 28.0315 35.3874 27.6673 35.3874H12.273C11.9091 35.3874 11.614 35.6824 11.614 36.0463C11.614 36.4102 11.9091 36.7052 12.273 36.7052H27.6673C28.0315 36.7052 28.3262 36.4102 28.3262 36.0463Z" fill="black"/>
<path d="M13.9205 38.682C13.5566 38.682 13.2616 38.9771 13.2616 39.341C13.2616 39.7049 13.5566 39.9999 13.9205 39.9999H26.0202C26.3841 39.9999 26.6791 39.7049 26.6791 39.341C26.6791 38.9771 26.3841 38.682 26.0202 38.682H13.9205Z" fill="black"/>
</svg>
