<svg width="70" height="70" viewBox="0 0 70 70" fill="none" xmlns="http://www.w3.org/2000/svg">
<path d="M22.3973 35.9571C19.9609 38.0079 16.1123 38.0079 13.6719 35.9571C13.4974 35.8401 13.286 35.7916 13.078 35.8208C12.87 35.85 12.6801 35.9549 12.5446 36.1154C12.4092 36.2759 12.3377 36.4808 12.3439 36.6907C12.3501 36.9007 12.4335 37.1009 12.5781 37.2532C14.1059 38.5439 16.0414 39.2521 18.0414 39.2521C20.0414 39.2521 21.9769 38.5439 23.5047 37.2532C23.5939 37.1821 23.668 37.0938 23.7225 36.9936C23.777 36.8934 23.8108 36.7833 23.822 36.6697C23.8332 36.5562 23.8215 36.4416 23.7876 36.3326C23.7537 36.2237 23.6984 36.1227 23.6247 36.0355C23.5511 35.9484 23.4608 35.8769 23.359 35.8252C23.2573 35.7736 23.1462 35.7429 23.0324 35.735C22.9186 35.727 22.8044 35.742 22.6965 35.779C22.5885 35.816 22.4891 35.8742 22.4041 35.9503L22.3973 35.9571Z" fill="#323336"/>
<path d="M54.1132 36.0116C51.6742 38.0706 47.8242 38.0706 45.3892 36.0116C45.2156 35.8732 44.9948 35.808 44.7738 35.8298C44.5528 35.8516 44.3491 35.9587 44.2058 36.1283C44.0625 36.2979 43.991 36.5167 44.0065 36.7382C44.0219 36.9597 44.1232 37.1665 44.2886 37.3146C45.8157 38.6062 47.7511 39.3149 49.7512 39.3149C51.7513 39.3149 53.6867 38.6062 55.2138 37.3146C55.3793 37.1665 55.4805 36.9597 55.496 36.7382C55.5114 36.5167 55.4399 36.2979 55.2966 36.1283C55.1534 35.9587 54.9496 35.8516 54.7286 35.8298C54.5076 35.808 54.2869 35.8732 54.1132 36.0116Z" fill="#323336"/>
<path d="M62.8114 32.8739C62.5804 32.8739 62.3807 32.8849 62.2003 32.8999C62.2181 32.6798 62.229 32.4597 62.2345 32.2368L62.2823 32.1151C62.8415 30.6933 63.4745 29.0827 63.4745 27.3546C63.4745 20.0442 57.6831 14.7368 49.7028 14.7368C41.7731 14.7368 36.0309 20.0442 36.0309 27.3546C36.0309 29.0991 36.5888 30.711 37.1725 32.2163C37.1725 32.4433 37.1889 32.6675 37.2067 32.8917C37.0509 32.8808 36.8813 32.8739 36.694 32.8739C34.553 32.8739 30.5868 33.7599 30.8534 40.3825L30.8917 40.3894C31.3921 40.4317 31.8597 40.4522 32.2985 40.4522C36.2634 40.4522 37.7673 38.7952 38.2677 37.0534C39.0101 38.697 40.0969 40.162 41.4546 41.3491C39.0296 42.8869 37.0006 44.9739 35.5319 47.4413C35.4907 47.4787 35.4532 47.5199 35.4198 47.5644C35.3986 47.6082 35.3817 47.654 35.3692 47.7011C34.7507 48.8194 34.2556 50.0017 33.8927 51.2271C33.5299 50.0064 33.0357 48.8288 32.4188 47.7147C32.406 47.6636 32.3886 47.6137 32.3669 47.5657C32.3313 47.516 32.2905 47.4701 32.2452 47.429C30.7584 44.946 28.7038 42.8511 26.2501 41.3163C28.7472 39.1493 30.2856 36.0823 30.5294 32.7851C30.5294 32.7755 30.5444 32.77 30.5471 32.7591C32.9083 25.7864 32.3505 21.261 32.3245 21.071C32.3245 21.056 32.3245 21.0409 32.3245 21.0259C31.8952 18.7372 30.3229 16.8245 27.7786 15.4942C23.0044 13.0019 16.327 13.1345 12.8763 14.6876C8.30985 16.7384 5.63016 14.771 5.52078 14.6876C5.39945 14.5928 5.25474 14.5327 5.102 14.5135C4.94925 14.4943 4.79416 14.5168 4.65317 14.5786C4.51217 14.6404 4.39053 14.7392 4.30114 14.8646C4.21174 14.9899 4.15792 15.1371 4.14539 15.2905L3.76395 20.0552C3.73524 20.2862 3.09129 25.7892 5.45106 32.7563C5.46746 32.8069 5.51258 32.8384 5.53856 32.8849C5.80749 36.1403 7.33829 39.1617 9.80418 41.304C7.3505 42.8466 5.2985 44.9501 3.81727 47.4413C3.7745 47.4784 3.73599 47.5201 3.70242 47.5657C3.68212 47.6098 3.66565 47.6555 3.6532 47.7024C2.46102 49.8312 1.59149 52.3905 1.33856 55.5145C1.32938 55.6262 1.3423 55.7386 1.37657 55.8453C1.41084 55.952 1.46579 56.0509 1.53829 56.1363C1.61078 56.2218 1.6994 56.2921 1.79908 56.3433C1.89875 56.3945 2.00754 56.4255 2.11922 56.4347H2.18758C2.4017 56.4344 2.60791 56.3537 2.7654 56.2086C2.92288 56.0636 3.02016 55.8646 3.03797 55.6513C3.20312 53.415 3.79628 51.2312 4.78524 49.2187L8.58465 51.5046V55.5884C8.58465 55.8146 8.67453 56.0316 8.83452 56.1916C8.99452 56.3516 9.21151 56.4415 9.43777 56.4415C9.66404 56.4415 9.88103 56.3516 10.041 56.1916C10.201 56.0316 10.2909 55.8146 10.2909 55.5884V51.0192C10.2913 50.8723 10.2538 50.7278 10.1819 50.5996C10.11 50.4715 10.0063 50.3641 9.88074 50.2878L5.61785 47.727C7.0376 45.5293 8.95336 43.6955 11.211 42.3731C13.231 43.6941 15.5909 44.4004 18.0045 44.4062C20.418 44.412 22.7814 43.7172 24.8077 42.406C27.0646 43.7302 28.9856 45.5572 30.4214 47.7448L26.1954 50.2878C26.0697 50.364 25.9659 50.4714 25.8941 50.5995C25.8222 50.7277 25.7847 50.8723 25.7852 51.0192V55.5843C25.7941 55.8045 25.8877 56.0127 26.0466 56.1653C26.2055 56.318 26.4173 56.4033 26.6377 56.4033C26.858 56.4033 27.0698 56.318 27.2287 56.1653C27.3876 56.0127 27.4813 55.8045 27.4901 55.5843V51.5005L31.2677 49.2269C32.2698 51.2331 32.8698 53.416 33.0341 55.6526C33.0469 55.7953 33.0962 55.9323 33.1771 56.0506C33.258 56.1688 33.3678 56.2643 33.4962 56.328L33.5249 56.3444C33.5973 56.3763 33.6736 56.3984 33.7518 56.4101C33.7819 56.4101 33.8065 56.4319 33.8366 56.4347H33.9063H33.9323H33.9514C33.9733 56.4347 33.9911 56.4196 34.0116 56.4169C34.2047 56.3944 34.3841 56.3062 34.5198 56.167C34.6555 56.0279 34.7392 55.8462 34.7567 55.6526C34.9227 53.416 35.5159 51.232 36.504 49.2187L40.3048 51.506V55.5897C40.3048 55.816 40.3947 56.033 40.5546 56.193C40.7146 56.353 40.9316 56.4429 41.1579 56.4429C41.3842 56.4429 41.6012 56.353 41.7611 56.193C41.9211 56.033 42.011 55.816 42.011 55.5897V51.0192C42.0112 50.8724 41.9735 50.7279 41.9017 50.5998C41.8298 50.4717 41.7262 50.3643 41.6009 50.2878L37.3434 47.7257C38.7454 45.5527 40.6335 43.7357 42.8587 42.4183C44.8934 43.754 47.2743 44.4657 49.7083 44.4657C52.1423 44.4657 54.5232 43.754 56.5579 42.4183C58.8034 43.7407 60.7148 45.5618 62.1442 47.7407L57.9182 50.2837C57.7926 50.3599 57.6888 50.4673 57.6169 50.5954C57.545 50.7236 57.5076 50.8682 57.5081 51.0151V55.5802C57.5081 55.8064 57.598 56.0234 57.758 56.1834C57.918 56.3434 58.135 56.4333 58.3612 56.4333C58.5875 56.4333 58.8045 56.3434 58.9645 56.1834C59.1245 56.0234 59.2143 55.8064 59.2143 55.5802V51.5005L62.9919 49.2269C63.9928 51.2335 64.5924 53.4162 64.7569 55.6526C64.775 55.8782 64.882 56.0873 65.0543 56.2339C65.2266 56.3806 65.4501 56.4528 65.6757 56.4347C65.9012 56.4165 66.1103 56.3096 66.257 56.1373C66.4036 55.965 66.4758 55.7415 66.4577 55.5159C66.2061 52.3933 65.3407 49.8394 64.1472 47.7229C64.1341 47.6713 64.1162 47.6209 64.0938 47.5726C64.0582 47.5228 64.0174 47.477 63.9722 47.4358C62.4904 44.9544 60.4414 42.8596 57.9934 41.3231C59.3732 40.1109 60.4712 38.6117 61.2104 36.9304C61.6725 38.7159 63.1573 40.4522 67.2179 40.4522C67.6567 40.4522 68.1243 40.4317 68.6247 40.3894L68.663 40.3825C68.9186 33.7599 64.9524 32.8739 62.8114 32.8739ZM36.2511 37.4007C35.6386 38.2497 34.4067 38.6995 32.5856 38.7433C32.71 37.3679 33.1038 36.3288 33.7614 35.6438C34.6063 34.7647 35.8218 34.5788 36.6913 34.5788H36.7255C36.8444 35.4401 36.8321 36.5968 36.2511 37.4007ZM5.46063 20.2343L5.74227 16.7261C7.2284 17.3317 9.94774 17.8772 13.5776 16.2435C16.6784 14.8462 22.8075 14.8202 26.9884 17.0063C29.0733 18.1001 30.3024 19.5425 30.6429 21.3116C30.6757 21.6083 31.0147 25.1575 29.452 30.577L26.004 25.6552C25.8936 25.4979 25.7335 25.3824 25.5494 25.3273C25.3654 25.2723 25.1681 25.2808 24.9895 25.3517C24.9526 25.3667 21.2981 26.8132 17.9608 26.8392C14.7192 26.8132 11.0538 25.3667 11.0169 25.3517C10.8383 25.2811 10.6411 25.2726 10.4571 25.3277C10.2731 25.3827 10.1129 25.4981 10.0024 25.6552L6.56258 30.5688C4.93836 24.772 5.45106 20.3122 5.46063 20.2343ZM7.22977 32.5882L11.021 27.1727C12.2856 27.6157 15.2169 28.5249 18.0565 28.5468C20.8114 28.5249 23.7221 27.6171 24.9827 27.1727L28.8354 32.6757C28.6256 35.4036 27.391 37.951 25.3798 39.8058C23.3686 41.6607 20.7299 42.6856 17.994 42.6745C15.258 42.6634 12.6277 41.6172 10.6316 39.7461C8.6355 37.875 7.4216 35.3177 7.23387 32.5882H7.22977ZM49.7028 16.4431C56.6946 16.4431 61.7696 21.0327 61.7696 27.3546C61.7696 28.5851 61.3472 29.8155 60.8864 31.0022C57.7419 30.0548 51.863 27.654 50.5764 22.7075C50.5289 22.5257 50.4228 22.3646 50.2745 22.2492C50.1263 22.1338 49.944 22.0705 49.7561 22.069H49.7083C49.5206 22.0704 49.3385 22.1335 49.1902 22.2487C49.042 22.3638 48.9357 22.5246 48.888 22.7061C47.6069 27.6185 41.702 30.0302 38.537 30.9872C38.1063 29.8155 37.744 28.5892 37.744 27.3546C37.7345 21.0327 42.7671 16.4431 49.7028 16.4431ZM49.7028 42.7628C46.9561 42.7572 44.3138 41.7099 42.3091 39.8322C40.3045 37.9544 39.0869 35.3861 38.902 32.6456C42.3665 31.6257 47.477 29.4669 49.7288 25.1999C51.9751 29.4942 57.0624 31.6462 60.5118 32.6593C60.3232 35.3986 59.1029 37.9645 57.0969 39.8396C55.091 41.7146 52.4486 42.7592 49.7028 42.7628ZM63.2503 37.4007C62.6692 36.5968 62.6583 35.4374 62.7772 34.5788H62.8114C63.6809 34.5788 64.895 34.7647 65.7413 35.6438C66.3989 36.3274 66.7913 37.3679 66.9157 38.7433C65.096 38.6995 63.8628 38.2497 63.2503 37.4007Z" fill="#323336"/>
</svg>
