<svg width="71" height="70" viewBox="0 0 71 70" fill="none" xmlns="http://www.w3.org/2000/svg">
<g clip-path="url(#clip0_7477_700)">
<path fill-rule="evenodd" clip-rule="evenodd" d="M13.0471 33.7387C12.1329 33.7387 11.3895 34.4823 11.3895 35.3961C11.3896 36.3115 12.1329 37.055 13.0467 37.055L24.3467 37.0548C24.5617 37.0548 24.7669 37.1457 24.9119 37.3048L28.5896 41.3549C28.6913 41.4679 28.7916 41.5793 28.8903 41.6909C30.1098 43.0535 31.0728 44.1313 33.835 44.1313H38.2974C41.0595 44.1313 42.0226 43.0535 43.2421 41.6909C43.3424 41.5793 43.441 41.4679 43.5429 41.3565L47.2206 37.3048C47.3653 37.1456 47.5707 37.055 47.7856 37.055L59.086 37.0548C59.9998 37.0548 60.7445 36.3115 60.7445 35.3961C60.7448 34.4823 59.9994 33.7388 59.0856 33.7388L13.0471 33.7387ZM38.2974 45.6596H33.8351C30.3899 45.6596 29.0479 44.1599 27.752 42.7097C27.6551 42.6015 27.5578 42.4915 27.4575 42.3833L24.008 38.5832H13.0471C11.2908 38.5832 9.86108 37.1537 9.86108 35.3961C9.86125 33.6402 11.2908 32.2104 13.0467 32.2104H59.086C60.8432 32.2104 62.2728 33.6402 62.2728 35.3961C62.2728 37.1537 60.8432 38.5832 59.0856 38.5832H48.1247L44.6749 42.3833C44.5764 42.4915 44.4774 42.6015 44.382 42.7097C43.0845 44.1599 41.7424 45.6596 38.2974 45.6596Z" fill="#323336"/>
<path fill-rule="evenodd" clip-rule="evenodd" d="M47.1535 33.7389C46.7318 33.7389 46.3893 33.3967 46.3893 32.9749C46.3895 28.6239 41.7581 25.0849 36.0668 25.0849C30.374 25.0849 25.7428 28.624 25.7428 32.9749C25.7429 33.3967 25.4004 33.739 24.9786 33.739C24.5569 33.7389 24.2144 33.3967 24.2144 32.9749C24.2144 27.7817 29.5317 23.5566 36.0668 23.5566C42.6004 23.5566 47.9176 27.7817 47.9176 32.9749C47.9179 33.3967 47.5752 33.739 47.1535 33.7389Z" fill="#323336"/>
<path fill-rule="evenodd" clip-rule="evenodd" d="M54.738 62.6318C53.3464 62.6318 52.2144 61.4999 52.2144 60.1086V55.8197C52.2144 55.6001 52.1619 55.4297 52.0408 55.2466L43.4713 42.2909C43.2387 41.9391 43.3358 41.4647 43.6877 41.2323C44.0397 40.9983 44.5139 41.0954 44.7465 41.4472L53.3163 54.4029C53.6028 54.8358 53.7426 55.2991 53.7426 55.8197L53.743 60.1086C53.743 60.6561 54.1885 61.1036 54.7377 61.1036C55.2857 61.1036 55.7327 60.6561 55.7327 60.1086V55.702C55.7327 55.5284 55.7009 55.3931 55.6229 55.2387L47.1026 38.1597C46.915 37.7824 47.0676 37.324 47.4448 37.1344C47.8222 36.9466 48.2822 37.0995 48.47 37.4784L56.9906 54.5556C57.1752 54.9249 57.261 55.2895 57.261 55.702L57.2611 60.1086C57.2611 61.4999 56.1291 62.6318 54.738 62.6318Z" fill="#323336"/>
<path fill-rule="evenodd" clip-rule="evenodd" d="M17.3964 62.6318C16.0048 62.6318 14.8728 61.4999 14.8728 60.1086V55.702C14.8728 55.2895 14.9587 54.9251 15.1418 54.5556L23.6623 37.4784C23.8519 37.0995 24.3101 36.9466 24.6874 37.1344C25.0651 37.324 25.2191 37.7824 25.0297 38.1597L16.5094 55.2387C16.4332 55.3931 16.4012 55.5284 16.4012 55.702V60.1086C16.4012 60.6561 16.8469 61.1036 17.3961 61.1036C17.944 61.1036 18.3911 60.6561 18.3911 60.1086L18.3914 55.8197C18.3914 55.2991 18.5297 54.8358 18.8161 54.4029L27.3876 41.4472C27.62 41.0954 28.0926 40.9983 28.4461 41.2323C28.7981 41.4647 28.8934 41.9391 28.661 42.2909L20.0915 55.2466C19.9704 55.4297 19.9195 55.6001 19.9195 55.8197V60.1086C19.9195 61.4999 18.7859 62.6318 17.3964 62.6318Z" fill="#323336"/>
<path fill-rule="evenodd" clip-rule="evenodd" d="M45.9486 40.6085H26.1858C25.7637 40.6085 25.4214 40.2661 25.4214 39.8442C25.4214 39.4224 25.7636 39.0801 26.1855 39.0801H45.9486C46.3706 39.0801 46.711 39.4224 46.711 39.8442C46.7113 40.2661 46.3703 40.6085 45.9486 40.6085Z" fill="#323336"/>
<path fill-rule="evenodd" clip-rule="evenodd" d="M19.2237 33.7387C18.8003 33.7387 18.4594 33.3965 18.4594 32.9747L18.4597 27.3533C18.4597 26.0718 17.4167 25.029 16.135 25.029C14.8537 25.029 13.8107 26.0718 13.8107 27.3533L13.8109 32.9747C13.8109 33.3965 13.4685 33.7388 13.0466 33.7388C12.625 33.7387 12.2825 33.3965 12.2825 32.9747V27.3533C12.2825 25.2279 14.0113 23.5007 16.135 23.5007C18.259 23.5007 19.9876 25.2281 19.9876 27.3533V32.9747C19.9876 33.3965 19.6454 33.7388 19.2237 33.7387Z" fill="#323336"/>
<path fill-rule="evenodd" clip-rule="evenodd" d="M59.0859 33.7387C58.6639 33.7387 58.3213 33.3965 58.3213 32.9747L58.3215 27.3533C58.3215 26.0718 57.2786 25.029 55.997 25.029C54.7155 25.029 53.6744 26.0718 53.6744 27.3533L53.6746 32.9747C53.6746 33.3965 53.3321 33.7388 52.9101 33.7388C52.4867 33.7387 52.146 33.3965 52.146 32.9747L52.1462 27.3533C52.1462 25.2279 53.8733 23.5007 55.997 23.5007C58.1209 23.5007 59.8497 25.2281 59.8497 27.3533L59.8499 32.9747C59.8499 33.3965 59.5074 33.7388 59.0859 33.7387Z" fill="#323336"/>
<path fill-rule="evenodd" clip-rule="evenodd" d="M54.5101 25.4143C54.0867 25.4143 53.7458 25.072 53.7458 24.6502L53.7462 18.9238C53.7462 18.5018 54.0866 18.1597 54.51 18.1597C54.9321 18.1597 55.2742 18.5018 55.2742 18.9238V24.6502C55.2742 25.072 54.9319 25.4143 54.5101 25.4143ZM57.4857 25.4143C57.0638 25.4143 56.7213 25.072 56.7213 24.6502V18.9238C56.7213 18.5018 57.0636 18.1597 57.4854 18.1597C57.9077 18.1597 58.2497 18.5018 58.2497 18.9238V24.6502C58.2497 25.072 57.9073 25.4143 57.4857 25.4143Z" fill="#323336"/>
<path fill-rule="evenodd" clip-rule="evenodd" d="M55.9972 14.5282C54.8781 14.5282 53.9674 15.439 53.9674 16.558C53.9675 17.6772 54.878 18.5878 55.997 18.5878C57.1165 18.5878 58.0284 17.6772 58.0284 16.558C58.0284 15.439 57.1162 14.5284 55.9972 14.5282ZM55.9972 20.1162C54.036 20.1162 52.439 18.5211 52.439 16.558C52.4391 14.5967 54.0358 13 55.997 13C57.9601 13 59.5552 14.5967 59.5552 16.558C59.5555 18.5211 57.9599 20.1162 55.9972 20.1162Z" fill="#323336"/>
<path fill-rule="evenodd" clip-rule="evenodd" d="M60.9564 19.4459C60.8561 19.4459 60.7557 19.4268 60.6617 19.3871L58.2628 18.3856C57.8728 18.2233 57.6895 17.7759 57.8518 17.3875C58.0143 16.9974 58.4616 16.8128 58.8517 16.9752L61.0743 17.9033L69.4719 17.1104V16.0072L61.0743 15.2129L58.8517 16.1409C58.4616 16.3017 58.0143 16.1186 57.8518 15.7286C57.6897 15.3403 57.8725 14.8928 58.2626 14.7305L60.6617 13.729C60.7782 13.6812 60.9038 13.6607 61.0278 13.6733L70.3075 14.5505C70.7009 14.5871 71.0001 14.9167 71.0001 15.3115L71.0004 17.8046C71.0004 18.1994 70.7007 18.529 70.3075 18.5657L61.0281 19.4428C61.0041 19.4459 60.98 19.4459 60.9564 19.4459Z" fill="#323336"/>
<path fill-rule="evenodd" clip-rule="evenodd" d="M51.0383 19.4459C51.0143 19.4459 50.9904 19.4459 50.9665 19.4428L41.6867 18.5656C41.2953 18.5288 40.9941 18.1994 40.9941 17.8046L40.9945 15.3115C40.9945 14.9167 41.295 14.5873 41.6867 14.5506L50.9666 13.6733C51.091 13.6607 51.2163 13.6814 51.3325 13.729L53.732 14.7305C54.1219 14.8928 54.3065 15.3402 54.144 15.7302C53.9819 16.1186 53.5327 16.3033 53.1443 16.1409L50.9204 15.2128L42.5225 16.0072V17.1104L50.9204 17.9032L53.1445 16.9752C53.5328 16.8128 53.9816 16.9975 54.144 17.3875C54.3065 17.7758 54.1218 18.2233 53.7316 18.3856L51.3327 19.3869C51.2389 19.4268 51.1399 19.4459 51.0383 19.4459Z" fill="#323336"/>
<path fill-rule="evenodd" clip-rule="evenodd" d="M14.6467 25.4143C14.2247 25.4143 13.8826 25.072 13.8826 24.6502L13.8827 18.9238C13.8827 18.5018 14.2247 18.1597 14.6467 18.1597C15.0686 18.1597 15.4108 18.5018 15.4108 18.9238L15.4111 24.6502C15.4111 25.072 15.0686 25.4143 14.6467 25.4143ZM17.6237 25.4143C17.2021 25.4143 16.8596 25.072 16.8596 24.6502L16.8598 18.9238C16.8598 18.5018 17.2018 18.1597 17.6237 18.1597C18.0457 18.1597 18.3878 18.5018 18.3878 18.9238L18.3882 24.6502C18.3882 25.072 18.0457 25.4143 17.6237 25.4143Z" fill="#323336"/>
<path fill-rule="evenodd" clip-rule="evenodd" d="M16.1353 14.5282C15.0159 14.5282 14.1053 15.439 14.1053 16.558C14.1055 17.6772 15.0159 18.5878 16.1351 18.5878C17.2543 18.5878 18.1649 17.6772 18.1649 16.558C18.1649 15.439 17.2543 14.5284 16.1353 14.5282ZM16.1353 20.1162C14.1725 20.1162 12.5769 18.5211 12.5769 16.558C12.5769 14.5967 14.1722 13 16.1351 13C18.0964 13 19.6931 14.5967 19.6931 16.558C19.6933 18.5211 18.0964 20.1162 16.1353 20.1162Z" fill="#323336"/>
<path fill-rule="evenodd" clip-rule="evenodd" d="M20.962 19.4459C20.8617 19.4459 20.7614 19.4268 20.6674 19.3871L18.3797 18.4318C17.9901 18.2695 17.805 17.822 17.9689 17.4337C18.1315 17.0435 18.5787 16.859 18.9672 17.0229L21.0798 17.9033L29.4777 17.1104V16.0072L21.0798 15.2129L18.9675 16.0949C18.5788 16.2555 18.1314 16.0724 17.9689 15.6824C17.8052 15.2941 17.9898 14.8466 18.3797 14.6843L20.6676 13.729C20.784 13.6812 20.9093 13.6607 21.0337 13.6733L30.3134 14.5505C30.7068 14.5871 31.0058 14.9167 31.0058 15.3115V17.8046C31.0058 18.1994 30.7066 18.529 30.3132 18.5657L21.0337 19.4428C21.0099 19.4459 20.9859 19.4459 20.962 19.4459Z" fill="#323336"/>
<path fill-rule="evenodd" clip-rule="evenodd" d="M11.0443 19.4459C11.0203 19.4459 10.9962 19.4459 10.9723 19.4428L1.69275 18.5656C1.29954 18.5288 1 18.1994 1 17.8046V15.3115C1 14.9167 1.29938 14.5873 1.69258 14.5506L10.9726 13.6733C11.0965 13.6607 11.2221 13.6814 11.3384 13.729L13.8508 14.7765C14.239 14.939 14.4238 15.3863 14.2613 15.7764C14.099 16.1664 13.6501 16.3495 13.2616 16.187L10.9265 15.2128L2.5284 16.0072V17.1104L10.9265 17.9032L13.2619 16.9289C13.6516 16.7666 14.0989 16.9513 14.2613 17.3397C14.4239 17.7298 14.239 18.1771 13.8507 18.3396L11.3387 19.3869C11.2449 19.4268 11.1443 19.4459 11.0443 19.4459Z" fill="#323336"/>
<path fill-rule="evenodd" clip-rule="evenodd" d="M31.6877 50.5567C31.616 50.5567 31.5442 50.5472 31.4725 50.5249C31.0683 50.407 30.8356 49.982 30.9535 49.5777L32.3958 44.6553C32.5155 44.2508 32.9403 44.0184 33.3445 44.1378C33.749 44.2556 33.9814 44.6806 33.8635 45.085L32.4217 50.0075C32.3228 50.3402 32.0184 50.5567 31.6877 50.5567ZM40.4449 50.5567C40.1139 50.5567 39.8097 50.3402 39.7126 50.0075L38.2703 45.085C38.1509 44.6806 38.3833 44.2556 38.7877 44.1378C39.1938 44.0184 39.6172 44.2508 39.7365 44.6553L41.1788 49.5777C41.2967 49.982 41.0658 50.4072 40.6599 50.5249C40.5882 50.5472 40.5165 50.5567 40.4449 50.5567Z" fill="#323336"/>
<path fill-rule="evenodd" clip-rule="evenodd" d="M28.8455 57.5774H43.2866V50.5568H28.8455V57.5774ZM44.0508 59.1058H28.0816C27.6595 59.1058 27.3171 58.7651 27.3171 58.3417L27.3175 49.7927C27.3175 49.3707 27.6595 49.0286 28.0814 49.0286H44.0508C44.4727 49.0286 44.8147 49.3707 44.8147 49.7927V58.3417C44.8147 58.7651 44.4725 59.1058 44.0508 59.1058Z" fill="#323336"/>
<path fill-rule="evenodd" clip-rule="evenodd" d="M34.6151 55.0445H37.5172V53.0895H34.6151V55.0445ZM38.2813 56.5728H33.8511C33.4292 56.5728 33.0867 56.2306 33.0867 55.8087V52.3254C33.0867 51.9035 33.4288 51.5613 33.8508 51.5613H38.2813C38.7032 51.5613 39.0454 51.9035 39.0454 52.3254L39.0457 55.8087C39.0457 56.2306 38.7031 56.5728 38.2813 56.5728Z" fill="#323336"/>
</g>
<defs>
<clipPath id="clip0_7477_700">
<rect width="70" height="70" fill="white" transform="translate(0.5)"/>
</clipPath>
</defs>
</svg>
