<svg width="71" height="70" viewBox="0 0 71 70" fill="none" xmlns="http://www.w3.org/2000/svg">
<g clip-path="url(#clip0_7477_725)">
<path d="M40.7637 21.9844V27.4805H40.0664C38.9043 27.4805 37.9609 28.4238 37.9609 29.5723C37.9609 30.7344 38.9043 31.6777 40.0664 31.6777H40.7637V48.3027H40.0664C38.9043 48.3027 37.9609 49.2461 37.9609 50.4082C37.9609 51.5703 38.9043 52.5 40.0664 52.5H40.7637V57.9961C40.7637 58.4062 41.0918 58.748 41.5156 58.748H65.8789C66.2891 58.748 66.6309 58.4199 66.6309 57.9961V21.9844C66.6309 21.5742 66.3027 21.2324 65.8789 21.2324H41.5156C41.1055 21.2461 40.7637 21.5742 40.7637 21.9844ZM40.0664 30.1875C39.7383 30.1875 39.4648 29.9141 39.4648 29.5859C39.4648 29.2578 39.7383 28.9844 40.0664 28.9844H42.9648C43.293 28.9844 43.5664 29.2578 43.5664 29.5859C43.5664 29.9141 43.293 30.1875 42.9648 30.1875H40.0664ZM40.0664 50.9961C39.7383 50.9961 39.4648 50.7227 39.4648 50.3945C39.4648 50.0664 39.7383 49.793 40.0664 49.793H42.9648C43.293 49.793 43.5664 50.0664 43.5664 50.3945C43.5664 50.7227 43.293 50.9961 42.9648 50.9961H40.0664ZM42.2676 22.7363H65.127V57.2441H42.2676V52.5H42.9648C44.127 52.5 45.0566 51.5566 45.0566 50.4082C45.0566 49.2461 44.1133 48.3027 42.9648 48.3027H42.2676V31.6777H42.9648C44.127 31.6777 45.0566 30.7344 45.0566 29.5723C45.0566 28.4102 44.1133 27.4805 42.9648 27.4805H42.2676V22.7363ZM36.252 24.5137H5.12109C4.71094 24.5137 4.36914 24.8555 4.36914 25.2656V38.1445C4.36914 38.5547 4.69727 38.8965 5.12109 38.8965H36.2383C36.6484 38.8965 36.9902 38.5684 36.9902 38.1445V25.2656C36.9902 24.8418 36.6621 24.5137 36.252 24.5137ZM35.5 37.3926H5.87305V26.0039H35.5V37.3926ZM69.6113 17.5H62.0234V13.3574C62.0234 12.8652 62.4199 12.4688 62.9121 12.4688C63.8008 12.4551 65.9062 12.4688 66.7539 12.5508C67.0547 12.5508 67.3418 12.3594 67.4512 12.0723L69.9668 5.61914C70.1719 5.1543 69.7754 4.58008 69.2695 4.59375H60.4238C56.9648 4.59375 54.1484 7.41016 54.1484 10.8691V17.5H26.1621V16.2285H29.7031C30.1133 16.2285 30.4551 15.8867 30.4551 15.4766V8.57227C30.4551 8.16211 30.127 7.82031 29.7031 7.82031H17.2344V4.0332C17.2344 3.62305 16.9062 3.28125 16.4824 3.28125H8.2793C7.86914 3.28125 7.52734 3.62305 7.52734 4.0332V7.83398H5.75C5.33984 7.83398 4.99805 8.17578 4.99805 8.58594V15.4902C4.99805 15.9004 5.32617 16.2422 5.75 16.2422H9.29102V17.5137H1.38867C0.978516 17.5137 0.636719 17.8555 0.636719 18.2656V61.7559C0.636719 62.166 0.964844 62.5078 1.38867 62.5078H4.73828V65.9941C4.73828 66.4043 5.06641 66.7461 5.49023 66.7461H65.5234C65.9336 66.7461 66.2754 66.418 66.2754 65.9941V62.4805H69.625C70.0352 62.4805 70.377 62.1523 70.377 61.7285V18.252C70.3633 17.8281 70.0352 17.5 69.6113 17.5ZM66.1797 6.09766H68.1895L66.2617 11.0195H66.1797V6.09766ZM55.6523 10.8691C55.6523 8.23047 57.7988 6.08398 60.4375 6.08398H64.6895V10.9512H62.9121C61.5996 10.9512 60.5332 12.0176 60.5332 13.3301V17.5H55.666V10.8691H55.6523ZM9.03125 4.77148H15.7305V7.82031H9.03125V4.77148ZM6.50195 14.7246V9.32422H28.9512V14.7246H6.50195ZM24.6719 16.2285V17.5H21.8555V16.2285H24.6719ZM20.3516 16.2285V17.5H15.1152V16.2285H20.3516ZM13.6113 16.2285V17.5H10.7949V16.2285H13.6113ZM64.7715 65.2285H6.22852V62.4941H64.7578V65.2285H64.7715ZM68.873 60.9902H2.12695V18.9902C12.7227 18.9902 59.248 19.0039 68.8594 18.9902V60.9902H68.873ZM36.252 41.084H5.12109C4.71094 41.084 4.36914 41.4121 4.36914 41.8359V54.7148C4.36914 55.125 4.69727 55.4668 5.12109 55.4668H36.2383C36.6484 55.4668 36.9902 55.1387 36.9902 54.7148V41.8359C36.9902 41.4258 36.6621 41.084 36.252 41.084ZM35.5 53.9766H5.87305V42.5879H35.5V53.9766ZM8.62109 48.6035H32.2734C32.6836 48.6035 33.0254 48.2754 33.0254 47.8516V45.1445C33.0254 44.7344 32.6973 44.3926 32.2734 44.3926H8.62109C8.21094 44.3926 7.86914 44.7207 7.86914 45.1445V47.8516C7.86914 48.2617 8.19727 48.6035 8.62109 48.6035ZM9.35938 45.8965H31.5078V47.1133H9.35938V45.8965ZM55.8164 50.75C56.2812 51.4199 57.3887 50.873 57.1426 50.0938L54.8594 42.2871L58.6055 40.4277C59.0156 40.2363 59.1523 39.6758 58.8789 39.3066L51.5918 29.4355C51.373 29.1484 50.9766 29.0527 50.6621 29.2031C50.334 29.3672 50.1699 29.7363 50.2793 30.0781L52.5625 37.8848L48.8164 39.7441C48.625 39.8398 48.4746 40.0176 48.4199 40.2363C48.3652 40.4551 48.4199 40.6738 48.543 40.8516L55.8164 50.75ZM53.7656 38.9648C54.0938 38.8008 54.2578 38.4316 54.1484 38.0898L52.877 33.7285L57.1289 39.498L53.6152 41.2344C53.2871 41.3984 53.123 41.7676 53.2324 42.1094L54.5039 46.4707L50.252 40.7012L53.7656 38.9648ZM8.62109 32.0059H14.3633C14.7734 32.0059 15.1152 31.6641 15.1152 31.2539V28.5469C15.1152 28.1367 14.7871 27.7949 14.3633 27.7949H8.62109C8.21094 27.7949 7.86914 28.1367 7.86914 28.5469V31.2539C7.86914 31.6777 8.19727 32.0059 8.62109 32.0059ZM9.35938 29.2988H13.6113V30.5156H9.35938V29.2988Z" fill="#323336"/>
</g>
<defs>
<clipPath id="clip0_7477_725">
<rect width="70" height="70" fill="white" transform="translate(0.5)"/>
</clipPath>
</defs>
</svg>
