<svg width="61" height="61" viewBox="0 0 61 61" fill="none" xmlns="http://www.w3.org/2000/svg">
<path d="M33.3955 0C18.1287 4.93887 5.2509 15.0074 0 30.01C5.19092 44.8416 17.9479 55.0225 33.3955 60.02C47.1319 49.861 54.6223 41.7025 60.1328 30.01C52.2233 24.9161 48.9007 22.2937 42.4881 14.4113C33.8962 18.2388 26.4175 22.6994 19.7926 29.8471C22.17 33.0955 26.1173 36.1278 29.3086 38.619C33.9596 35.3404 37.5065 32.1459 39.8041 29.4049C41.2447 31.0934 42.8691 32.2169 44.4162 33.1561C40.4198 39.6776 35.935 43.2581 30.3968 46.678C22.0783 42.4538 15.3916 35.1421 12.1418 28.9598C18.2331 19.3262 27.7872 12.8216 38.6432 9.19661C36.8844 6.24179 34.5791 3.49006 33.3955 0Z" fill="#FFD001"/>
</svg>
