<svg width="35" height="65" viewBox="0 0 35 65" fill="none" xmlns="http://www.w3.org/2000/svg">
<path fill-rule="evenodd" clip-rule="evenodd" d="M29.4138 64.9999H5.41032C2.43845 64.9999 0 62.5995 0 59.5896V20.1171C0 17.1072 2.43845 14.6687 5.41032 14.6687H29.4138C32.4238 14.6687 34.8623 17.1072 34.8623 20.1171V59.5896C34.8623 62.5614 32.4238 64.9999 29.4138 64.9999ZM5.41032 16.1927C3.27667 16.1927 1.52403 17.9454 1.52403 20.1171V59.5896C1.52403 61.7232 3.27667 63.4759 5.41032 63.4759H29.4138C31.5856 63.4759 33.3382 61.7232 33.3382 59.5896V20.1171C33.3382 17.9454 31.5856 16.1927 29.4138 16.1927H5.41032Z" fill="#323336"/>
<path fill-rule="evenodd" clip-rule="evenodd" d="M27.4325 30.3283H7.42955C5.90552 30.3283 4.64819 29.109 4.64819 27.585V22.0985C4.64819 20.5745 5.90552 19.3552 7.42955 19.3552H27.4325C28.9565 19.3552 30.1757 20.5745 30.1757 22.0985V27.585C30.1757 29.109 28.9565 30.3283 27.4325 30.3283ZM7.42955 20.8793C6.74374 20.8793 6.17223 21.4127 6.17223 22.0985V27.585C6.17223 28.2708 6.74374 28.8042 7.42955 28.8042H27.4325C28.1183 28.8042 28.6517 28.2708 28.6517 27.585V22.0985C28.6517 21.4127 28.1183 20.8793 27.4325 20.8793H7.42955Z" fill="#323336"/>
<path fill-rule="evenodd" clip-rule="evenodd" d="M17.4121 39.1295C15.6595 39.1295 14.2117 37.6816 14.2117 35.929C14.2117 34.1383 15.6595 32.6904 17.4121 32.6904C19.2029 32.6904 20.6507 34.1383 20.6507 35.929C20.6507 37.6816 19.2029 39.1295 17.4121 39.1295ZM17.4121 34.2145C16.4977 34.2145 15.7357 34.9765 15.7357 35.929C15.7357 36.8434 16.4977 37.6054 17.4121 37.6054C18.3647 37.6054 19.1267 36.8434 19.1267 35.929C19.1267 34.9765 18.3647 34.2145 17.4121 34.2145Z" fill="#323336"/>
<path fill-rule="evenodd" clip-rule="evenodd" d="M7.88676 39.1295C6.09602 39.1295 4.64819 37.6816 4.64819 35.929C4.64819 34.1383 6.09602 32.6904 7.88676 32.6904C9.6775 32.6904 11.0872 34.1383 11.0872 35.929C11.0872 37.6816 9.6775 39.1295 7.88676 39.1295ZM7.88676 34.2145C6.93424 34.2145 6.17223 34.9765 6.17223 35.929C6.17223 36.8434 6.93424 37.6054 7.88676 37.6054C8.80118 37.6054 9.5632 36.8434 9.5632 35.929C9.5632 34.9765 8.80118 34.2145 7.88676 34.2145Z" fill="#323336"/>
<path fill-rule="evenodd" clip-rule="evenodd" d="M26.9754 39.1295C25.1846 39.1295 23.7368 37.6816 23.7368 35.929C23.7368 34.1383 25.1846 32.6904 26.9754 32.6904C28.728 32.6904 30.1759 34.1383 30.1759 35.929C30.1759 37.6816 28.728 39.1295 26.9754 39.1295ZM26.9754 34.2145C26.0229 34.2145 25.2608 34.9765 25.2608 35.929C25.2608 36.8434 26.0229 37.6054 26.9754 37.6054C27.8898 37.6054 28.6518 36.8434 28.6518 35.929C28.6518 34.9765 27.8898 34.2145 26.9754 34.2145Z" fill="#323336"/>
<path fill-rule="evenodd" clip-rule="evenodd" d="M28.0804 43.0157H6.74395C6.32484 43.0157 5.98193 42.6728 5.98193 42.2537C5.98193 41.8346 6.32484 41.4917 6.74395 41.4917H28.0804C28.4995 41.4917 28.8424 41.8346 28.8424 42.2537C28.8424 42.6728 28.4995 43.0157 28.0804 43.0157Z" fill="#323336"/>
<path fill-rule="evenodd" clip-rule="evenodd" d="M28.9566 16.1928H20.8411C20.422 16.1928 20.0791 15.8499 20.0791 15.4308V12.116C20.0791 11.6969 20.422 11.354 20.8411 11.354H28.9566C29.3757 11.354 29.7186 11.6969 29.7186 12.116V15.4308C29.7186 15.8499 29.3757 16.1928 28.9566 16.1928ZM21.6031 14.6688H28.1946V12.878H21.6031V14.6688Z" fill="#323336"/>
<path fill-rule="evenodd" clip-rule="evenodd" d="M26.9372 12.8781H22.8604C22.4032 12.8781 22.0984 12.5352 22.0984 12.1161V0.762016C22.0984 0.342907 22.4032 0 22.8604 0H26.9372C27.3563 0 27.6992 0.342907 27.6992 0.762016V12.1161C27.6992 12.5352 27.3563 12.8781 26.9372 12.8781ZM23.6224 11.354H26.1752V1.52403H23.6224V11.354Z" fill="#323336"/>
<path fill-rule="evenodd" clip-rule="evenodd" d="M12.9543 16.1928H6.93438C6.51527 16.1928 6.17236 15.8499 6.17236 15.4308V11.4302C6.17236 11.0111 6.51527 10.6682 6.93438 10.6682H12.9543C13.3734 10.6682 13.7163 11.0111 13.7163 11.4302V15.4308C13.7163 15.8499 13.3734 16.1928 12.9543 16.1928ZM7.6964 14.6688H12.1923V12.1922H7.6964V14.6688Z" fill="#323336"/>
<path fill-rule="evenodd" clip-rule="evenodd" d="M9.33481 48.1976H6.74395C6.32484 48.1976 5.98193 47.8547 5.98193 47.4356C5.98193 47.0165 6.32484 46.6736 6.74395 46.6736H9.33481C9.75391 46.6736 10.0968 47.0165 10.0968 47.4356C10.0968 47.8547 9.75391 48.1976 9.33481 48.1976Z" fill="#323336"/>
<path fill-rule="evenodd" clip-rule="evenodd" d="M15.5833 48.1976H12.9925C12.5734 48.1976 12.2305 47.8547 12.2305 47.4356C12.2305 47.0165 12.5734 46.6736 12.9925 46.6736H15.5833C16.0024 46.6736 16.3454 47.0165 16.3454 47.4356C16.3454 47.8547 16.0024 48.1976 15.5833 48.1976Z" fill="#323336"/>
<path fill-rule="evenodd" clip-rule="evenodd" d="M21.8319 48.1976H19.2791C18.8219 48.1976 18.5171 47.8547 18.5171 47.4356C18.5171 47.0165 18.86 46.6736 19.2791 46.6736H21.8319C22.251 46.6736 22.5939 47.0165 22.5939 47.4356C22.5939 47.8547 22.251 48.1976 21.8319 48.1976Z" fill="#323336"/>
<path fill-rule="evenodd" clip-rule="evenodd" d="M28.0804 48.1976H25.5276C25.1085 48.1976 24.7656 47.8547 24.7656 47.4356C24.7656 47.0165 25.1085 46.6736 25.5276 46.6736H28.0804C28.4995 46.6736 28.8424 47.0165 28.8424 47.4356C28.8424 47.8547 28.4995 48.1976 28.0804 48.1976Z" fill="#323336"/>
<path fill-rule="evenodd" clip-rule="evenodd" d="M9.33481 53.2269H6.74395C6.32484 53.2269 5.98193 52.884 5.98193 52.4649C5.98193 52.0458 6.32484 51.7029 6.74395 51.7029H9.33481C9.75391 51.7029 10.0968 52.0458 10.0968 52.4649C10.0968 52.884 9.75391 53.2269 9.33481 53.2269Z" fill="#323336"/>
<path fill-rule="evenodd" clip-rule="evenodd" d="M15.5833 53.2269H12.9925C12.5734 53.2269 12.2305 52.884 12.2305 52.4649C12.2305 52.0458 12.5734 51.7029 12.9925 51.7029H15.5833C16.0024 51.7029 16.3454 52.0458 16.3454 52.4649C16.3454 52.884 16.0024 53.2269 15.5833 53.2269Z" fill="#323336"/>
<path fill-rule="evenodd" clip-rule="evenodd" d="M21.8319 53.2269H19.2791C18.8219 53.2269 18.5171 52.884 18.5171 52.4649C18.5171 52.0458 18.86 51.7029 19.2791 51.7029H21.8319C22.251 51.7029 22.5939 52.0458 22.5939 52.4649C22.5939 52.884 22.251 53.2269 21.8319 53.2269Z" fill="#323336"/>
<path fill-rule="evenodd" clip-rule="evenodd" d="M28.0804 53.2269H25.5276C25.1085 53.2269 24.7656 52.884 24.7656 52.4649C24.7656 52.0458 25.1085 51.7029 25.5276 51.7029H28.0804C28.4995 51.7029 28.8424 52.0458 28.8424 52.4649C28.8424 52.884 28.4995 53.2269 28.0804 53.2269Z" fill="#323336"/>
<path fill-rule="evenodd" clip-rule="evenodd" d="M9.33481 58.2181H6.74395C6.32484 58.2181 5.98193 57.8752 5.98193 57.4561C5.98193 57.037 6.32484 56.6941 6.74395 56.6941H9.33481C9.75391 56.6941 10.0968 57.037 10.0968 57.4561C10.0968 57.8752 9.75391 58.2181 9.33481 58.2181Z" fill="#323336"/>
<path fill-rule="evenodd" clip-rule="evenodd" d="M15.5833 58.2181H12.9925C12.5734 58.2181 12.2305 57.8752 12.2305 57.4561C12.2305 57.037 12.5734 56.6941 12.9925 56.6941H15.5833C16.0024 56.6941 16.3454 57.037 16.3454 57.4561C16.3454 57.8752 16.0024 58.2181 15.5833 58.2181Z" fill="#323336"/>
<path fill-rule="evenodd" clip-rule="evenodd" d="M21.8319 58.2181H19.2791C18.8219 58.2181 18.5171 57.8752 18.5171 57.4561C18.5171 57.037 18.86 56.6941 19.2791 56.6941H21.8319C22.251 56.6941 22.5939 57.037 22.5939 57.4561C22.5939 57.8752 22.251 58.2181 21.8319 58.2181Z" fill="#323336"/>
<path fill-rule="evenodd" clip-rule="evenodd" d="M28.0804 58.2181H25.5276C25.1085 58.2181 24.7656 57.8752 24.7656 57.4561C24.7656 57.037 25.1085 56.6941 25.5276 56.6941H28.0804C28.4995 56.6941 28.8424 57.037 28.8424 57.4561C28.8424 57.8752 28.4995 58.2181 28.0804 58.2181Z" fill="#323336"/>
</svg>
