<svg xmlns="http://www.w3.org/2000/svg" xml:space="preserve" width="22" height="18" fill="#fff"
    stroke="#fff" viewBox="0 0 511.3 511.3"><path d="M508.3 94.2c-2.6-2.6-6.9-3.4-10.4-2.6l-17.3 6.1a119 119 0 0 0 21.7-37.3c1.7-4.3.8-7.8-1.8-10.4a9.2 9.2 0 0 0-10.4-1.7 635.7 635.7 0 0 1-62.5 24.2c0 1-.8 0-1.7 0-13.9-7.8-47.7-25.1-72-25.1-61.6.9-111.1 53-111.1 116.3v3.4c-90.3-17.3-139.7-43.4-193.5-99.8l-8.7-8.6L35.4 69c-29.5 56.4-8.7 107.6 25.2 142.3A70.9 70.9 0 0 1 25 195.8c-3.5-2.6-7.8-3.5-12.2-.9-3.4 1.7-5.2 7-4.3 11.3C20.6 247 51 280 84 299.9c-15.6 0-28.6-1.7-41.7-10.4-3.4-1.7-8.6-1.7-12.1.9s-5.2 7-3.5 11.2c15.6 44.3 46 67.7 94.6 73.8-25.2 14.8-58.1 27-109.3 27.8-5.2 0-9.6 3.4-11.3 7.8-1.8 5.2 0 9.5 3.5 13 31.2 25.2 100.6 40 186.5 40 152.8 0 277.7-136.3 277.7-303.8v-2.6a86 86 0 0 0 42.5-53c1-3.4 0-7.8-2.6-10.4zm-52 49.5-5.2 1.7v14.8c0 158-117.2 286.4-260.4 286.4-79 0-131.9-13-160.5-27 59.9-4.3 94.6-23.4 121.5-44.2l21.7-15.6h-26c-49.5 0-79.9-13.9-97.3-46.9 15.7 5.2 32.2 5.2 50.4 4.4 7-.9 13.9-.9 20.8-.9L124 299c-33-9.5-72-39-91.1-79 17.3 7.9 36.4 9.6 53.8 9.6h26.9L91.8 214c-18.2-13-72-59-46-125 55.5 54.7 108.5 79.9 204 97.2l10.4 1.8v-24.3c0-53.8 41.6-98 93.7-99 20-.8 53 17.4 62.5 22.6A19.9 19.9 0 0 0 432 89c13-4.3 28.6-10.4 46-17.3-7.8 13-18.3 25.1-32.1 36.4-3.5 2.6-4.4 7.8-2.6 12.2 1.7 4.3 6.9 6 11.2 4.3l33.9-11.3a61.3 61.3 0 0 1-32.1 30.4z"/></svg>